<?xml version="1.0" encoding="UTF-8"?>
<svg id="Layer_2" data-name="Layer 2" xmlns="http://www.w3.org/2000/svg" viewBox="0 0 1448 709.18">
  <defs>
    <style>
      .cls-1 {
        fill: #8a004b;
      }

      .cls-2 {
        fill: #bb004b;
      }
    </style>
  </defs>
  <g id="Layer_1-2" data-name="Layer 1">
    <g id="Fixed">
      <polygon class="cls-2" points="724 322.18 724 439.18 364 313.1 364 196.1 431.05 219.59 431.06 219.59 464 231.12 724 322.18"/>
      <polygon class="cls-2" points="464 161.09 364 196.1 364 126.07 464 161.09"/>
      <polygon class="cls-1" points="724 0 724 117 464 208.05 464 231.12 431.06 219.59 431.05 219.59 364 196.1 464 161.09 364 126.07 464 91.05 724 0"/>
      <polygon class="cls-1" points="724 322.18 724 439.18 1084 313.1 1084 196.1 1016.95 219.59 1016.94 219.59 984 231.12 724 322.18"/>
      <polygon class="cls-1" points="984 161.09 1084 196.1 1084 126.07 984 161.09"/>
      <polygon class="cls-2" points="724 0 724 117 984 208.05 984 231.12 1016.94 219.59 1016.95 219.59 1084 196.1 984 161.09 1084 126.07 984 91.05 724 0"/>
      <polygon class="cls-2" points="724 457.18 724 529.18 607 488.2 607 416.2 724 457.18"/>
      <polygon class="cls-1" points="841 416.2 841 488.2 724 529.18 724 457.18 841 416.2"/>
      <polygon class="cls-2" points="724 547.18 724 619.18 607 578.2 607 506.2 724 547.18"/>
      <polygon class="cls-1" points="841 506.2 841 578.2 724 619.18 724 547.18 841 506.2"/>
      <polygon class="cls-2" points="724 637.18 724 709.18 607 668.2 607 596.2 724 637.18"/>
      <polygon class="cls-1" points="841 596.2 841 668.2 724 709.18 724 637.18 841 596.2"/>
      <g>
        <polygon class="cls-2" points="173 416.2 173 459.2 110.5 459.2 110.5 668.2 62.5 668.2 62.5 459.2 0 459.2 0 416.2 173 416.2"/>
        <polygon class="cls-2" points="256 459.2 256 520.7 381 520.7 381 563.7 256 563.7 256 625.2 381 625.2 381 668.2 208 668.2 208 416.2 381 416.2 381 459.2 256 459.2"/>
        <polygon class="cls-2" points="464 459.2 464 520.7 589 520.7 589 668.2 416 668.2 416 625.2 541 625.2 541 563.7 416 563.7 416 416.2 589 416.2 589 459.2 464 459.2"/>
      </g>
      <g>
        <path class="cls-1" d="M1067,416.2v252h48v-104.5h77v104.5h48v-252h-173Zm125,104.5h-77v-61.5h77v61.5Z"/>
        <polygon class="cls-1" points="1032 625.2 1032 668.2 859 668.2 859 416.2 907 416.2 907 625.2 1032 625.2"/>
        <polygon class="cls-1" points="1448 416.2 1448 668.2 1400 668.2 1323 516.2 1323 668.2 1275 668.2 1275 416.2 1323 416.2 1400 568.2 1400 416.2 1448 416.2"/>
      </g>
    </g>
  </g>
</svg>