<?xml version="1.0" encoding="utf-8"?>
<!-- Generator: Adobe Illustrator 21.0.0, SVG Export Plug-In . SVG Version: 6.00 Build 0)  -->
<svg version="1.1" id="Layer_2" xmlns="http://www.w3.org/2000/svg" xmlns:xlink="http://www.w3.org/1999/xlink" x="0px" y="0px"
	 viewBox="0 0 1564.4 757.5" style="enable-background:new 0 0 1564.4 757.5;" xml:space="preserve">
<style type="text/css">
	.st0{fill:#BB004B;}
	.st1{fill:#8A004B;}
	.st2{fill:#FFFFFF;}
	.st3{font-family:'MyriadPro-Regular';}
	.st4{font-size:10px;}
	.st5{fill:#FCFCFC;}
	.st6{font-size:9.9975px;}
	.st7{font-size:9.998px;}
	.st8{font-size:10.002px;}
	.st9{font-size:9.9996px;}
	.st10{font-size:12px;}
	.st11{fill:none;stroke:#000000;stroke-width:2;stroke-miterlimit:10;}
	.st12{fill:none;stroke:#000000;stroke-width:2;stroke-miterlimit:10;stroke-dasharray:3.9972,3.9972;}
	.st13{fill:none;stroke:#000000;stroke-width:0.75;stroke-miterlimit:10;}
	.st14{fill:none;stroke:#000000;stroke-width:0.75;stroke-miterlimit:10;stroke-dasharray:4,4;}
	.st15{fill:none;stroke:#000000;stroke-width:0.75;stroke-miterlimit:10;stroke-dasharray:3.9842,3.9842;}
	.st16{font-size:10.0012px;}
	.st17{font-size:9.9991px;}
	.st18{fill:none;}
	.st19{fill:none;stroke:#000000;stroke-miterlimit:10;}
	.st20{fill:none;stroke:#000000;stroke-miterlimit:10;stroke-dasharray:1.9524,1.9524;}
	.st21{fill:none;stroke:#000000;stroke-miterlimit:10;stroke-dasharray:2;}
	.st22{fill:none;stroke:#000000;stroke-miterlimit:10;stroke-dasharray:1.7776,1.7776;}
	.st23{font-size:6px;}
</style>
<g id="Layer_1-2">
	<g id="Fixed">
		<polygon class="st0" points="784.4,344.1 784.4,461.1 424.4,335 424.4,218 491.4,241.5 491.5,241.5 524.4,253 		"/>
		<polygon class="st0" points="524.4,183 424.4,218 424.4,148 		"/>
		<polygon class="st1" points="784.4,21.9 784.4,138.9 524.4,229.9 524.4,253 491.5,241.5 491.4,241.5 424.4,218 524.4,183 
			424.4,148 524.4,113 		"/>
		<polygon class="st1" points="784.4,344.1 784.4,461.1 1144.4,335 1144.4,218 1077.3,241.5 1077.3,241.5 1044.4,253 		"/>
		<polygon class="st1" points="1044.4,183 1144.4,218 1144.4,148 		"/>
		<polygon class="st0" points="784.4,21.9 784.4,138.9 1044.4,229.9 1044.4,253 1077.3,241.5 1077.3,241.5 1144.4,218 1044.4,183 
			1144.4,148 1044.4,113 		"/>
		<polygon class="st0" points="784.4,479.1 784.4,551.1 667.4,510.1 667.4,438.1 		"/>
		<polygon class="st1" points="901.4,438.1 901.4,510.1 784.4,551.1 784.4,479.1 		"/>
		<polygon class="st0" points="784.4,569.1 784.4,641.1 667.4,600.1 667.4,528.1 		"/>
		<polygon class="st1" points="901.4,528.1 901.4,600.1 784.4,641.1 784.4,569.1 		"/>
		<polygon class="st0" points="784.4,659.1 784.4,731.1 667.4,690.1 667.4,618.1 		"/>
		<polygon class="st1" points="901.4,618.1 901.4,690.1 784.4,731.1 784.4,659.1 		"/>
		<g>
			<polygon class="st0" points="233.4,438.1 233.4,481.1 170.9,481.1 170.9,690.1 122.9,690.1 122.9,481.1 60.4,481.1 60.4,438.1 
							"/>
			<polygon class="st0" points="316.4,481.1 316.4,542.6 441.4,542.6 441.4,585.6 316.4,585.6 316.4,647.1 441.4,647.1 441.4,690.1 
				268.4,690.1 268.4,438.1 441.4,438.1 441.4,481.1 			"/>
			<polygon class="st0" points="524.4,481.1 524.4,542.6 649.4,542.6 649.4,690.1 476.4,690.1 476.4,647.1 601.4,647.1 601.4,585.6 
				476.4,585.6 476.4,438.1 649.4,438.1 649.4,481.1 			"/>
		</g>
		<g>
			<path class="st1" d="M1127.4,438.1v252h48V585.6h77v104.5h48v-252H1127.4z M1252.4,542.6h-77v-61.5h77V542.6z"/>
			<polygon class="st1" points="1092.4,647.1 1092.4,690.1 919.4,690.1 919.4,438.1 967.4,438.1 967.4,647.1 			"/>
			<polygon class="st1" points="1508.4,438.1 1508.4,690.1 1460.4,690.1 1383.4,538.1 1383.4,690.1 1335.4,690.1 1335.4,438.1 
				1383.4,438.1 1460.4,590.1 1460.4,438.1 			"/>
		</g>
	</g>
</g>
<text transform="matrix(1 0 0 1 122.5378 446.5585)" class="st2 st3 st4">AA: 173 pt</text>
<text transform="matrix(1 0 0 1 171.2879 478.1146)" class="st2 st3 st4">AC: 62.5 pt</text>
<text transform="matrix(6.123234e-17 -1 1 6.123234e-17 166.9805 599.2073)" class="st2 st3 st4">AD: 209 pt</text>
<text transform="matrix(1 0 0 1 126.6211 687.8088)" class="st2 st3 st4">AE: 48 pt</text>
<text transform="matrix(6.123234e-17 -1 1 6.123234e-17 132.2305 599.2073)" class="st2 st3 st4">AD: 209 pt</text>
<text transform="matrix(1 0 0 1 73.5379 477.1146)" class="st2 st3 st4">AC: 62.5 pt</text>
<text transform="matrix(1 0 0 1 338.3711 446.5585)" class="st2 st3 st4">AA: 173 pt</text>
<text transform="matrix(1 0 0 1 339.1211 686.6141)" class="st2 st3 st4">AA: 173 pt</text>
<text transform="matrix(6.123234e-17 -1 1 6.123234e-17 312.737 537.3811)" class="st2 st3 st4">AG: 61.5 pt</text>
<text transform="matrix(6.123234e-17 -1 1 6.123234e-17 312.7369 641.7141)" class="st2 st3 st4">AG: 61.5 pt</text>
<text transform="matrix(1 0 0 1 352.2461 477.1146)" class="st2 st3 st4">AF: 125 pt</text>
<text transform="matrix(1 0 0 1 349.4128 553.8082)" class="st2 st3 st4">AF: 125 pt</text>
<text transform="matrix(1 0 0 1 350.7463 581.9749)" class="st2 st3 st4">AF: 125 pt</text>
<text transform="matrix(1 0 0 1 340.6628 657.7133)" class="st2 st3 st4">AF: 125 pt</text>
<text transform="matrix(6.123234e-17 -1 1 6.123234e-17 278.8963 597.4583)" class="st2 st3 st4">AH: 252 pt</text>
<text transform="matrix(1 0 0 1 533.3711 448.5582)" class="st2 st3 st4">AA: 173 pt</text>
<text transform="matrix(1 0 0 1 542.7044 686.2258)" class="st2 st3 st4">AA: 173 pt</text>
<text transform="matrix(6.123234e-17 -1 1 6.123234e-17 645.7418 478.9475)" class="st2 st3 st4">AB: 43 pt</text>
<text transform="matrix(6.123234e-17 -1 1 6.123234e-17 521.0704 534.3811)" class="st2 st3 st4">AG: 61.5 pt</text>
<text transform="matrix(6.123234e-17 -1 1 6.123234e-17 611.0704 638.7141)" class="st2 st3 st4">AG: 61.5 pt</text>
<text transform="matrix(1 0 0 1 556.9961 478.9476)" class="st2 st3 st4">AF: 125 pt</text>
<text transform="matrix(1 0 0 1 554.6628 553.8085)" class="st2 st3 st4">AF: 125 pt</text>
<text transform="matrix(1 0 0 1 512.6629 581.9752)" class="st2 st3 st4">AF: 125 pt</text>
<text transform="matrix(1 0 0 1 509.6627 657.7136)" class="st2 st3 st4">AF: 125 pt</text>
<text transform="matrix(6.123234e-17 -1 1 6.123234e-17 487.1587 539.8088)" class="st2 st3 st4">AI: 147.5 pt</text>
<text transform="matrix(6.123234e-17 -1 1 6.123234e-17 643.7417 644.8098)" class="st2 st3 st4">AI: 147.5 pt</text>
<text transform="matrix(6.123234e-17 -1 1 6.123234e-17 677.5752 495.9475)" class="st2 st3 st4">AJ: 72 pt</text>
<text transform="matrix(6.123234e-17 -1 1 6.123234e-17 486.0752 686.6145)" class="st2 st3 st4">AB: 43 pt</text>
<text transform="matrix(6.123234e-17 -1 1 6.123234e-17 437.5752 686.6145)" class="st2 st3 st4">AB: 43 pt</text>
<text transform="matrix(6.123234e-17 -1 1 6.123234e-17 437.5752 581.9749)" class="st2 st3 st4">AB: 43 pt</text>
<text transform="matrix(6.123234e-17 -1 1 6.123234e-17 437.5752 477.1145)" class="st2 st3 st4">AB: 43 pt</text>
<text transform="matrix(6.123234e-17 -1 1 6.123234e-17 231.0752 477.1145)" class="st2 st3 st4">AB: 43 pt</text>
<text transform="matrix(6.123234e-17 -1 1 6.123234e-17 69.0752 477.1145)" class="st2 st3 st4">AB: 43 pt</text>
<text transform="matrix(6.123234e-17 -1 1 6.123234e-17 898.5752 491.9475)" class="st2 st3 st4">AJ: 72 pt</text>
<text transform="matrix(0.9427 0.3337 -0.3337 0.9427 699.462 458.0647)" class="st2 st3 st4">AK: 124 pt</text>
<text transform="matrix(0.9427 0.3337 -0.3337 0.9427 693.1287 516.0646)" class="st2 st3 st4">AK: 124 pt</text>
<text transform="matrix(0.9449 -0.3273 0.3273 0.9449 815.9385 477.1152)" class="st2 st3 st4">AK: 124 pt</text>
<text transform="matrix(0.9449 -0.3273 0.3273 0.9449 821.9385 534.3823)" class="st2 st3 st4">AK: 124 pt</text>
<text transform="matrix(6.123234e-17 -1 1 6.123234e-17 677.2418 586.3059)" class="st2 st3 st4">AJ: 72 pt</text>
<text transform="matrix(6.123234e-17 -1 1 6.123234e-17 898.2418 582.3059)" class="st2 st3 st4">AJ: 72 pt</text>
<text transform="matrix(0.9427 0.3337 -0.3337 0.9427 699.1287 548.423)" class="st2 st3 st4">AK: 124 pt</text>
<text transform="matrix(0.9427 0.3337 -0.3337 0.9427 692.7955 606.423)" class="st2 st3 st4">AK: 124 pt</text>
<text transform="matrix(0.9449 -0.3273 0.3273 0.9449 815.605 567.4736)" class="st2 st3 st4">AK: 124 pt</text>
<text transform="matrix(0.9449 -0.3273 0.3273 0.9449 821.605 624.7407)" class="st2 st3 st4">AK: 124 pt</text>
<text transform="matrix(6.123234e-17 -1 1 6.123234e-17 676.9085 676.5969)" class="st2 st3 st4">AJ: 72 pt</text>
<text transform="matrix(6.123234e-17 -1 1 6.123234e-17 897.9085 672.5969)" class="st2 st3 st4">AJ: 72 pt</text>
<text transform="matrix(0.9427 0.3337 -0.3337 0.9427 698.7952 638.7136)" class="st2 st3 st4">AK: 124 pt</text>
<text transform="matrix(0.9427 0.3337 -0.3337 0.9427 692.462 696.7136)" class="st2 st3 st4">AK: 124 pt</text>
<text transform="matrix(0.9449 -0.3273 0.3273 0.9449 815.2717 657.7641)" class="st2 st3 st4">AK: 124 pt</text>
<text transform="matrix(0.9449 -0.3273 0.3273 0.9449 821.2717 715.0312)" class="st2 st3 st4">AK: 124 pt</text>
<text transform="matrix(1 0 0 1 924.4961 446.5585)" class="st2 st3 st4">AE: 48 pt</text>
<text transform="matrix(6.123234e-17 -1 1 6.123234e-17 928.2296 586.3059)" class="st2 st3 st4">AH: 252 pt</text>
<text transform="matrix(1 0 0 1 997.5794 657.7136)" class="st2 st3 st4">AF: 125 pt</text>
<text transform="matrix(1 0 0 1 988.9128 686.9891)" class="st2 st3 st4">AA: 173 pt</text>
<text transform="matrix(6.123234e-17 -1 1 6.123234e-17 966.3138 581.9749)" class="st2 st3 st4">AD: 209 pt</text>
<text transform="matrix(6.123234e-17 -1 1 6.123234e-17 1089.4502 686.6145)" class="st2 st3 st4">AB: 43 pt</text>
<text transform="matrix(6.123234e-17 -1 1 6.123234e-17 1137.8962 579.3059)" class="st2 st3 st4">AH: 252 pt</text>
<text transform="matrix(6.123234e-17 -1 1 6.123234e-17 1296.8962 581.9739)" class="st2 st3 st4">AH: 252 pt</text>
<text transform="matrix(6.123234e-17 -1 1 6.123234e-17 1344.563 582.3059)" class="st2 st3 st4">AH: 252 pt</text>
<text transform="matrix(6.123234e-17 -1 1 6.123234e-17 1504.2296 586.3059)" class="st2 st3 st4">AH: 252 pt</text>
<text transform="matrix(1 0 0 1 1132.8295 686.2255)" class="st2 st3 st4">AE: 48 pt</text>
<text transform="matrix(1 0 0 1 1260.2045 687.8091)" class="st2 st3 st4">AE: 48 pt</text>
<text transform="matrix(1 0 0 1 1340.4961 687.8087)" class="st2 st3 st4">AE: 48 pt</text>
<text transform="matrix(1 0 0 1 1469.672 687.8088)" class="st2 st3 st4">AE: 48 pt</text>
<text transform="matrix(1 0 0 1 1336.6628 448.5582)" class="st2 st3 st4">AE: 48 pt</text>
<text transform="matrix(1 0 0 1 1468.1418 445.9017)" class="st2 st3 st4">AE: 48 pt</text>
<text transform="matrix(1 0 0 1 1196.0586 582.306)" class="st5 st3 st4">AM: 77 pt</text>
<text transform="matrix(1 0 0 1 1196.0586 551.306)" class="st5 st3 st4">AM: 77 pt</text>
<text transform="matrix(1 0 0 1 1193.4752 478.1146)" class="st5 st3 st4">AM: 77 pt</text>
<text transform="matrix(1 0 0 1 1192.2047 446.5588)" class="st2 st3 st4">AA: 173 pt</text>
<text transform="matrix(6.123234e-17 -1 1 6.123234e-17 1172.9037 531.1379)" class="st2 st3 st4">AG: 61.5 pt</text>
<text transform="matrix(6.123234e-17 -1 1 6.123234e-17 1261.2371 530.5559)" class="st2 st3 st4">AG: 61.5 pt</text>
<text transform="matrix(6.123234e-17 -1 1 6.123234e-17 1471.5054 531.1379)" class="st2 st3 st4">AN: 152 pt</text>
<text transform="matrix(6.123234e-17 -1 1 6.123234e-17 1380.672 638.7141)" class="st2 st3 st4">AN: 152 pt</text>
<text transform="matrix(0.4653 0.8851 -0.8851 0.4653 1408.8762 581.975)" class="st2 st3 st6">AO: 170 pt</text>
<text transform="matrix(0.4653 0.8851 -0.8851 0.4653 1406.0433 500.975)" class="st2 st3 st6">AO: 170 pt</text>
<text transform="matrix(0.939 -0.3438 0.3438 0.939 574.819 104.9818)" class="st2 st3 st7">AP: 381.436 pt</text>
<text transform="matrix(0.9382 0.3462 -0.3462 0.9382 570.0684 382.0797)" class="st2 st3 st8">AP: 381.436 pt</text>
<text transform="matrix(0.939 -0.3438 0.3438 0.939 969.8183 393.3155)" class="st2 st3 st7">AP: 381.436 pt</text>
<text transform="matrix(0.9456 0.3252 -0.3252 0.9456 915.6156 76.933)" class="st2 st3 st7">AP: 381.436 pt</text>
<text transform="matrix(6.123234e-17 -1 1 6.123234e-17 432.442 266.9915)" class="st2 st3 st4">AQ: 187 pt</text>
<text transform="matrix(6.123234e-17 -1 1 6.123234e-17 1141.1086 259.9915)" class="st2 st3 st4">AQ: 187 pt</text>
<text transform="matrix(0.939 -0.3438 0.3438 0.939 620.1519 191.315)" class="st2 st3 st7">AR: 275.465 pt </text>
<text transform="matrix(0.939 -0.3438 0.3438 0.939 904.6518 314.3147)" class="st2 st3 st7">AR: 275.465 pt </text>
<text transform="matrix(0.9413 0.3375 -0.3375 0.9413 616.0819 297.0268)" class="st2 st3 st9">AR: 275.465 pt </text>
<text transform="matrix(0.949 0.3153 -0.3153 0.949 871.9932 167.1613)" class="st2 st3 st9">AR: 275.465 pt </text>
<text transform="matrix(6.123234e-17 -1 1 6.123234e-17 521.9961 263.7883)" class="st2 st3 st4">AS: 23.1 pt</text>
<text transform="matrix(6.123234e-17 -1 1 6.123234e-17 1052.8713 265.6584)" class="st2 st3 st4">AS: 23.1 pt</text>
<text transform="matrix(6.123234e-17 -1 1 6.123234e-17 1261.2368 651.0559)" class="st2 st3 st4">AL: 104.5 pt</text>
<text transform="matrix(6.123234e-17 -1 1 6.123234e-17 1172.9042 651.0559)" class="st2 st3 st4">AL: 104.5 pt</text>
<text transform="matrix(1 0 0 1 230.4961 432.0168)" class="st3 st10">BA: 35 pt</text>
<line class="st11" x1="234.7" y1="438.1" x2="266.8" y2="438.1"/>
<text transform="matrix(1 0 0 1 439.6377 433.2668)" class="st3 st10">BA: 35 pt</text>
<line class="st11" x1="443.8" y1="439.4" x2="475.9" y2="439.4"/>
<line class="st11" x1="651" y1="439.4" x2="665.7" y2="439.4"/>
<text transform="matrix(1 0 0 1 641.2879 432.8915)" class="st3 st10">BB: 18 pt</text>
<g>
	<g>
		<line class="st11" x1="669.6" y1="439.4" x2="671.6" y2="439.4"/>
		<line class="st12" x1="675.6" y1="439.4" x2="897.4" y2="439.4"/>
		<line class="st11" x1="899.4" y1="439.4" x2="901.4" y2="439.4"/>
	</g>
</g>
<text transform="matrix(1 0 0 1 761.2045 436.0165)" class="st3 st10">BC: 234 pt</text>
<text transform="matrix(1 0 0 1 890.6213 433.2665)" class="st3 st10">BB: 18 pt</text>
<line class="st11" x1="903.5" y1="439.4" x2="918.2" y2="439.4"/>
<text transform="matrix(1 0 0 1 1082.7834 641.7144)" class="st3 st10">BA: 35 pt</text>
<line class="st11" x1="1093.6" y1="647.9" x2="1125.7" y2="647.9"/>
<text transform="matrix(1 0 0 1 1298.2461 432.8915)" class="st3 st10">BA: 35 pt</text>
<line class="st11" x1="1302.4" y1="439" x2="1334.5" y2="439"/>
<line class="st11" x1="1384.2" y1="439" x2="1458.6" y2="439"/>
<text transform="matrix(1 0 0 1 1401.0377 433.2672)" class="st3 st10">BD: 77 pt</text>
<g>
	<g>
		<polyline class="st13" points="1508.5,728.9 1508.5,730.9 1506.5,730.9 		"/>
		<line class="st14" x1="1502.5" y1="730.9" x2="64.5" y2="730.9"/>
		<polyline class="st13" points="62.5,730.9 60.5,730.9 60.5,728.9 		"/>
		<line class="st15" x1="60.5" y1="724.9" x2="60.5" y2="25.7"/>
		<polyline class="st13" points="60.5,23.7 60.5,21.7 62.5,21.7 		"/>
		<line class="st14" x1="66.5" y1="21.7" x2="1504.5" y2="21.7"/>
		<polyline class="st13" points="1506.5,21.7 1508.5,21.7 1508.5,23.7 		"/>
		<line class="st15" x1="1508.5" y1="27.7" x2="1508.5" y2="726.9"/>
	</g>
</g>
<text transform="matrix(1 0 0 1 757.7046 741.5588)" class="st3 st10">tw: 1448 pt</text>
<text transform="matrix(6.123234e-17 -1 1 6.123234e-17 49.1985 382.0793)" class="st3 st10">th: 709.2 pt</text>
<text transform="matrix(1 0 0 1 60.3711 17.8919)" class="st3 st10">All measurements were performed by measuring in Adobe Illustrator using the measure tool</text>
<text transform="matrix(0.9427 0.3337 -0.3337 0.9427 668.3712 447.4016)" class="st2 st3 st4">aa</text>
<text transform="matrix(1 0 0 1 109.8704 136.5109)" class="st3 st4">All angles are 90 degrees, except for:</text>
<text transform="matrix(1 0 0 1 109.2036 147.9918)" class="st3 st4">aa= 70.688 deg</text>
<text transform="matrix(1 0 0 1 109.2036 159.9918)" class="st3 st4">ab=109.312 deg</text>
<text transform="matrix(1 0 0 1 109.2036 171.9918)" class="st3 st4">ac = 141.376 deg </text>
<text transform="matrix(1 0 0 1 110.537 183.4085)" class="st3 st4">af = 27deg</text>
<text transform="matrix(1 0 0 1 110.537 195.4085)" class="st3 st4">ag = 117 deg</text>
<text transform="matrix(0.9427 0.3337 -0.3337 0.9427 667.3712 507.5683)" class="st2 st3 st4">ab</text>
<text transform="matrix(0.9571 -0.2898 0.2898 0.9571 890.6204 449.7731)" class="st2 st3 st4">aa</text>
<text transform="matrix(0.9571 -0.2898 0.2898 0.9571 890.6204 511.7731)" class="st2 st3 st4">ab</text>
<text transform="matrix(0.9427 0.3337 -0.3337 0.9427 668.3712 537.381)" class="st2 st3 st4">aa</text>
<text transform="matrix(0.9427 0.3337 -0.3337 0.9427 667.3712 597.5477)" class="st2 st3 st4">ab</text>
<text transform="matrix(0.9571 -0.2898 0.2898 0.9571 890.6204 539.7526)" class="st2 st3 st4">aa</text>
<text transform="matrix(0.9571 -0.2898 0.2898 0.9571 890.6204 601.7526)" class="st2 st3 st4">ab</text>
<text transform="matrix(0.9427 0.3337 -0.3337 0.9427 668.3712 627.0681)" class="st2 st3 st4">aa</text>
<text transform="matrix(0.9427 0.3337 -0.3337 0.9427 667.3712 687.2349)" class="st2 st3 st4">ab</text>
<text transform="matrix(0.9571 -0.2898 0.2898 0.9571 890.6204 629.4399)" class="st2 st3 st4">aa</text>
<text transform="matrix(0.9571 -0.2898 0.2898 0.9571 890.6204 691.4399)" class="st2 st3 st4">ab</text>
<text transform="matrix(0.9571 -0.2898 0.2898 0.9571 1129.6205 336.7731)" class="st2 st3 st4">ab</text>
<text transform="matrix(0.9427 0.3337 -0.3337 0.9427 424.3711 333.0683)" class="st2 st3 st4">ab</text>
<text transform="matrix(0.9571 -0.2898 0.2898 0.9571 427.9538 155.4399)" class="st2 st3 st4">ab</text>
<text transform="matrix(0.9427 0.3337 -0.3337 0.9427 1131.2456 152.2609)" class="st2 st3 st4">ab</text>
<text transform="matrix(0.9999 1.634723e-02 -1.634723e-02 0.9999 779.6536 29.7869)" class="st2 st3 st16">ac</text>
<text transform="matrix(0.9999 1.634723e-02 -1.634723e-02 0.9999 779.6524 458.0648)" class="st2 st3 st16">ac</text>
<text transform="matrix(0.9999 1.634723e-02 -1.634723e-02 0.9999 779.6519 548.4235)" class="st2 st3 st16">ac</text>
<text transform="matrix(0.9999 1.634723e-02 -1.634723e-02 0.9999 779.6524 638.7149)" class="st2 st3 st16">ac</text>
<text transform="matrix(0.9999 1.634723e-02 -1.634723e-02 0.9999 779.6515 728.5589)" class="st2 st3 st16">ac</text>
<text transform="matrix(0.9999 1.634723e-02 -1.634723e-02 0.9999 779.6558 147.9922)" class="st3 st16">ac</text>
<text transform="matrix(0.9999 1.634723e-02 -1.634723e-02 0.9999 779.6537 341.4926)" class="st3 st16">ac</text>
<text transform="matrix(0.9999 1.634723e-02 -1.634723e-02 0.9999 524.373 252.9922)" class="st3 st16">ab</text>
<text transform="matrix(0.9999 1.634723e-02 -1.634723e-02 0.9999 524.3734 234.9913)" class="st3 st16">ab</text>
<text transform="matrix(0.9999 1.634723e-02 -1.634723e-02 0.9999 1032.3726 252.9909)" class="st3 st16">ab</text>
<text transform="matrix(0.9999 1.634723e-02 -1.634723e-02 0.9999 1032.3728 234.9915)" class="st3 st16">ab</text>
<text transform="matrix(0.9571 -0.2898 0.2898 0.9571 1384.9537 563.2148)" class="st3 st4">af</text>
<text transform="matrix(0.9571 -0.2898 0.2898 0.9571 1453.4539 569.8745)" class="st3 st4">af</text>
<text transform="matrix(0.9093 0.4161 -0.4161 0.9093 1374.4642 444.9199)" class="st2 st3 st17">ag</text>
<text transform="matrix(0.9683 0.2497 -0.2497 0.9683 1457.9956 683.2923)" class="st2 st3 st17">ag</text>
<g>
	<line class="st18" x1="1175.4" y1="481.1" x2="1175.4" y2="438.1"/>
	<g>
		<line class="st19" x1="1175.4" y1="481.1" x2="1175.4" y2="480.1"/>
		<line class="st20" x1="1175.4" y1="478.1" x2="1175.4" y2="440.1"/>
		<line class="st19" x1="1175.4" y1="439.1" x2="1175.4" y2="438.1"/>
	</g>
</g>
<line class="st21" x1="1175.4" y1="438.1" x2="1127.4" y2="438.1"/>
<text transform="matrix(1 0 0 1 1132.829 446.9543)" class="st2 st3 st4">BE: 48 pt</text>
<text transform="matrix(1 0 0 1 1177.7461 463.3918)" class="st2 st3 st4">BF: 43 pt </text>
<text transform="matrix(1 0 0 1 618.5379 524.0585)" class="st3 st10">BB: 18 pt</text>
<line class="st19" x1="667.4" y1="511.1" x2="667.4" y2="526.9"/>
<text transform="matrix(0.9506 0.3104 -0.3104 0.9506 668.3715 613.3125)" class="st3 st10">BB: 18 pt</text>
<line class="st19" x1="667.4" y1="600.6" x2="667.4" y2="616.4"/>
<text transform="matrix(0.9581 0.2864 -0.2864 0.9581 723.1212 453.53)" class="st3 st10">BB: 18 pt</text>
<g>
	<g>
		<line class="st19" x1="771.2" y1="456.5" x2="771.2" y2="457.5"/>
		<line class="st22" x1="771.2" y1="459.3" x2="771.2" y2="472.6"/>
		<line class="st19" x1="771.2" y1="473.5" x2="771.2" y2="474.5"/>
	</g>
</g>
<g>
	<g>
		<line class="st11" x1="784.4" y1="22.9" x2="784.4" y2="23.9"/>
		<line class="st12" x1="784.4" y1="25.9" x2="784.4" y2="137.7"/>
		<line class="st11" x1="784.4" y1="138.7" x2="784.4" y2="139.7"/>
	</g>
</g>
<text transform="matrix(6.123234e-17 -1 1 6.123234e-17 797.0363 113.0862)" class="st3 st4">BH: 118 pt </text>
<text transform="matrix(0.9999 1.634723e-02 -1.634723e-02 0.9999 780.3179 475.9477)" class="st3 st16">ac</text>
<text transform="matrix(0.9999 1.634723e-02 -1.634723e-02 0.9999 779.6505 564.092)" class="st3 st16">ac</text>
<text transform="matrix(0.9999 1.634723e-02 -1.634723e-02 0.9999 780.3169 654.4476)" class="st3 st16">ac</text>
<text transform="matrix(1 0 0 1 306.1463 134.8919)"><tspan x="0" y="0" class="st3 st23">Lengths of all sections:</tspan><tspan x="0" y="7.2" class="st3 st23">AA = 173</tspan><tspan x="0" y="14.4" class="st3 st23">AB = 43</tspan><tspan x="0" y="21.6" class="st3 st23">AC = 62.5</tspan><tspan x="0" y="28.8" class="st3 st23">AD = 209</tspan><tspan x="0" y="36" class="st3 st23">AE = 48</tspan><tspan x="0" y="43.2" class="st3 st23">AF = 125</tspan><tspan x="0" y="50.4" class="st3 st23">AG = 61.5</tspan><tspan x="0" y="57.6" class="st3 st23">AH = 252</tspan><tspan x="0" y="64.8" class="st3 st23">AI = 147.5</tspan><tspan x="0" y="72" class="st3 st23">AJ = 72</tspan><tspan x="0" y="79.2" class="st3 st23">AK = 124</tspan><tspan x="0" y="86.4" class="st3 st23">AL = 104.5</tspan><tspan x="0" y="93.6" class="st3 st23">AM = 77</tspan><tspan x="0" y="100.8" class="st3 st23">AN = 152</tspan><tspan x="0" y="108" class="st3 st23">AO = 170</tspan><tspan x="0" y="115.2" class="st3 st23">AP = 381.436</tspan><tspan x="0" y="122.4" class="st3 st23">AQ = 187</tspan><tspan x="0" y="129.6" class="st3 st23">AR = 275.465</tspan><tspan x="0" y="136.8" class="st3 st23">AS = 23.1</tspan><tspan x="0" y="151.2" class="st3 st23">Inter-character spaces</tspan><tspan x="0" y="158.4" class="st3 st23">BA = 35</tspan><tspan x="0" y="165.6" class="st3 st23">B] = 18</tspan><tspan x="0" y="172.8" class="st3 st23">BC = 234</tspan><tspan x="0" y="180" class="st3 st23">BD = 77</tspan><tspan x="0" y="187.2" class="st3 st23">BE= 48</tspan><tspan x="0" y="194.4" class="st3 st23">BF = 43</tspan><tspan x="0" y="201.6" class="st3 st23">BH = 118</tspan><tspan x="0" y="216" class="st3 st23">Total width and height</tspan><tspan x="0" y="223.2" class="st3 st23">tw = 1448</tspan><tspan x="0" y="230.4" class="st3 st23">th = 709.2</tspan></text>
</svg>
