<?xml version="1.0" encoding="utf-8"?>
<!-- Generator: Adobe Illustrator 21.0.0, SVG Export Plug-In . SVG Version: 6.00 Build 0)  -->
<svg version="1.1" id="Layer_2" xmlns="http://www.w3.org/2000/svg" xmlns:xlink="http://www.w3.org/1999/xlink" x="0px" y="0px"
	 viewBox="0 0 1564.4 757.5" style="enable-background:new 0 0 1564.4 757.5;" xml:space="preserve">
<style type="text/css">
	.st0{fill:#BB004B;}
	.st1{fill:#8A004B;}
	.st2{fill:#FFFFFF;}
	.st3{font-family:'MyriadPro-Regular';}
	.st4{font-size:10px;}
	.st5{fill:#FCFCFC;}
	.st6{font-size:9.997px;}
	.st7{font-size:9.9976px;}
	.st8{font-size:10.0024px;}
	.st9{font-size:9.9996px;}
	.st10{font-size:12px;}
	.st11{fill:none;stroke:#000000;stroke-width:2;stroke-miterlimit:10;}
	.st12{fill:none;stroke:#000000;stroke-width:2;stroke-miterlimit:10;stroke-dasharray:3.9972,3.9972;}
	.st13{fill:none;stroke:#000000;stroke-width:0.75;stroke-miterlimit:10;}
	.st14{fill:none;stroke:#000000;stroke-width:0.75;stroke-miterlimit:10;stroke-dasharray:4,4;}
	.st15{fill:none;stroke:#000000;stroke-width:0.75;stroke-miterlimit:10;stroke-dasharray:3.9842,3.9842;}
	.st16{font-size:10.0015px;}
	.st17{font-size:9.9991px;}
	.st18{fill:none;}
	.st19{fill:none;stroke:#000000;stroke-miterlimit:10;}
	.st20{fill:none;stroke:#000000;stroke-miterlimit:10;stroke-dasharray:1.9524,1.9524;}
	.st21{fill:none;stroke:#000000;stroke-miterlimit:10;stroke-dasharray:2;}
	.st22{fill:none;stroke:#000000;stroke-miterlimit:10;stroke-dasharray:1.7776,1.7776;}
</style>
<g id="Layer_1-2">
	<g id="Fixed">
		<polygon class="st0" points="784.4,344.1 784.4,461.1 424.4,335 424.4,218 491.4,241.5 491.5,241.5 524.4,253 		"/>
		<polygon class="st0" points="524.4,183 424.4,218 424.4,148 		"/>
		<polygon class="st1" points="784.4,21.9 784.4,138.9 524.4,229.9 524.4,253 491.5,241.5 491.4,241.5 424.4,218 524.4,183 
			424.4,148 524.4,113 		"/>
		<polygon class="st1" points="784.4,344.1 784.4,461.1 1144.4,335 1144.4,218 1077.3,241.5 1077.3,241.5 1044.4,253 		"/>
		<polygon class="st1" points="1044.4,183 1144.4,218 1144.4,148 		"/>
		<polygon class="st0" points="784.4,21.9 784.4,138.9 1044.4,229.9 1044.4,253 1077.3,241.5 1077.3,241.5 1144.4,218 1044.4,183 
			1144.4,148 1044.4,113 		"/>
		<polygon class="st0" points="784.4,479.1 784.4,551.1 667.4,510.1 667.4,438.1 		"/>
		<polygon class="st1" points="901.4,438.1 901.4,510.1 784.4,551.1 784.4,479.1 		"/>
		<polygon class="st0" points="784.4,569.1 784.4,641.1 667.4,600.1 667.4,528.1 		"/>
		<polygon class="st1" points="901.4,528.1 901.4,600.1 784.4,641.1 784.4,569.1 		"/>
		<polygon class="st0" points="784.4,659.1 784.4,731.1 667.4,690.1 667.4,618.1 		"/>
		<polygon class="st1" points="901.4,618.1 901.4,690.1 784.4,731.1 784.4,659.1 		"/>
		<g>
			<polygon class="st0" points="233.4,438.1 233.4,481.1 170.9,481.1 170.9,690.1 122.9,690.1 122.9,481.1 60.4,481.1 60.4,438.1 
							"/>
			<polygon class="st0" points="316.4,481.1 316.4,542.6 441.4,542.6 441.4,585.6 316.4,585.6 316.4,647.1 441.4,647.1 441.4,690.1 
				268.4,690.1 268.4,438.1 441.4,438.1 441.4,481.1 			"/>
			<polygon class="st0" points="524.4,481.1 524.4,542.6 649.4,542.6 649.4,690.1 476.4,690.1 476.4,647.1 601.4,647.1 601.4,585.6 
				476.4,585.6 476.4,438.1 649.4,438.1 649.4,481.1 			"/>
		</g>
		<g>
			<path class="st1" d="M1127.4,438.1v252h48V585.6h77v104.5h48v-252L1127.4,438.1L1127.4,438.1z M1252.4,542.6h-77v-61.5h77V542.6z
				"/>
			<polygon class="st1" points="1092.4,647.1 1092.4,690.1 919.4,690.1 919.4,438.1 967.4,438.1 967.4,647.1 			"/>
			<polygon class="st1" points="1508.4,438.1 1508.4,690.1 1460.4,690.1 1383.4,538.1 1383.4,690.1 1335.4,690.1 1335.4,438.1 
				1383.4,438.1 1460.4,590.1 1460.4,438.1 			"/>
		</g>
	</g>
</g>
<text transform="matrix(1 0 0 1 136.7878 445.9016)" class="st2 st3 st4">AA</text>
<text transform="matrix(1 0 0 1 171.2879 478.1146)" class="st2 st3 st4">AC</text>
<text transform="matrix(6.123234e-17 -1 1 6.123234e-17 166.9805 599.207)" class="st2 st3 st4">AD</text>
<text transform="matrix(1 0 0 1 140.6211 687.8093)" class="st2 st3 st4">AE</text>
<text transform="matrix(6.123234e-17 -1 1 6.123234e-17 132.2305 599.207)" class="st2 st3 st4">AD</text>
<text transform="matrix(1 0 0 1 73.5379 477.1146)" class="st2 st3 st4">AC</text>
<text transform="matrix(1 0 0 1 346.7462 447.4016)" class="st2 st3 st4">AA</text>
<text transform="matrix(1 0 0 1 354.9 686.2256)" class="st2 st3 st4">AA</text>
<text transform="matrix(6.123234e-17 -1 1 6.123234e-17 312.7372 522.7139)" class="st2 st3 st4">AG</text>
<text transform="matrix(6.123234e-17 -1 1 6.123234e-17 311.7369 627.0684)" class="st2 st3 st4">AG</text>
<text transform="matrix(1 0 0 1 371.7464 478.1149)" class="st2 st3 st4">AF</text>
<text transform="matrix(1 0 0 1 371.7462 553.8081)" class="st2 st3 st4">AF</text>
<text transform="matrix(1 0 0 1 371.7464 582.3063)" class="st2 st3 st4">AF</text>
<text transform="matrix(1 0 0 1 371.7464 657.7137)" class="st2 st3 st4">AF</text>
<text transform="matrix(6.123234e-17 -1 1 6.123234e-17 278.8961 574.791)" class="st2 st3 st4">AH</text>
<text transform="matrix(1 0 0 1 556.9961 446.5581)" class="st2 st3 st4">AA</text>
<text transform="matrix(1 0 0 1 557.8711 686.9893)" class="st2 st3 st4">AA</text>
<text transform="matrix(6.123234e-17 -1 1 6.123234e-17 646.7418 466.1143)" class="st2 st3 st4">AB</text>
<text transform="matrix(6.123234e-17 -1 1 6.123234e-17 519.9037 519)" class="st2 st3 st4">AG</text>
<text transform="matrix(6.123234e-17 -1 1 6.123234e-17 609.9037 623.2139)" class="st2 st3 st4">AG</text>
<text transform="matrix(1 0 0 1 564.9961 478.9476)" class="st2 st3 st4">AF</text>
<text transform="matrix(1 0 0 1 564.9963 552.1418)" class="st2 st3 st4">AF</text>
<text transform="matrix(1 0 0 1 531.9962 582.3053)" class="st2 st3 st4">AF</text>
<text transform="matrix(1 0 0 1 531.9963 656.7136)" class="st2 st3 st4">AF</text>
<text transform="matrix(6.123234e-17 -1 1 6.123234e-17 486.075 511.7734)" class="st2 st3 st4">AI</text>
<text transform="matrix(6.123234e-17 -1 1 6.123234e-17 646.7418 618.0996)" class="st2 st3 st4">AI</text>
<text transform="matrix(6.123234e-17 -1 1 6.123234e-17 677.5752 481.6143)" class="st2 st3 st4">AJ</text>
<text transform="matrix(6.123234e-17 -1 1 6.123234e-17 485.0752 676.5977)" class="st2 st3 st4">AB</text>
<text transform="matrix(6.123234e-17 -1 1 6.123234e-17 437.5752 676.5977)" class="st2 st3 st4">AB</text>
<text transform="matrix(6.123234e-17 -1 1 6.123234e-17 437.5752 567.4736)" class="st2 st3 st4">AB</text>
<text transform="matrix(6.123234e-17 -1 1 6.123234e-17 437.5752 467.3643)" class="st2 st3 st4">AB</text>
<text transform="matrix(6.123234e-17 -1 1 6.123234e-17 230.4961 467.3643)" class="st2 st3 st4">AB</text>
<text transform="matrix(6.123234e-17 -1 1 6.123234e-17 69.0752 467.3643)" class="st2 st3 st4">AB</text>
<text transform="matrix(6.123234e-17 -1 1 6.123234e-17 897.4 481.6143)" class="st2 st3 st4">AJ</text>
<text transform="matrix(0.9427 0.3337 -0.3337 0.9427 717.1287 465.9501)" class="st2 st3 st4">AK</text>
<text transform="matrix(0.9427 0.3337 -0.3337 0.9427 715.462 524.0585)" class="st2 st3 st4">AK</text>
<text transform="matrix(0.9449 -0.3273 0.3273 0.9449 836.9385 470.7819)" class="st2 st3 st4">AK</text>
<text transform="matrix(0.9449 -0.3273 0.3273 0.9449 821.9385 534.3823)" class="st2 st3 st4">AK</text>
<text transform="matrix(6.123234e-17 -1 1 6.123234e-17 677.2418 586.3057)" class="st2 st3 st4">AJ</text>
<text transform="matrix(6.123234e-17 -1 1 6.123234e-17 897.3997 574.791)" class="st2 st3 st4">AJ</text>
<text transform="matrix(0.9427 0.3337 -0.3337 0.9427 717.1285 553.808)" class="st2 st3 st4">AK</text>
<text transform="matrix(0.9427 0.3337 -0.3337 0.9427 721.4622 616.4006)" class="st2 st3 st4">AK</text>
<text transform="matrix(0.9449 -0.3273 0.3273 0.9449 839.2716 561.1403)" class="st2 st3 st4">AK</text>
<text transform="matrix(0.9449 -0.3273 0.3273 0.9449 842.9005 616.4006)" class="st2 st3 st4">AK</text>
<text transform="matrix(6.123234e-17 -1 1 6.123234e-17 676.9085 676.5977)" class="st2 st3 st4">AJ</text>
<text transform="matrix(6.123234e-17 -1 1 6.123234e-17 900.4003 663.2637)" class="st2 st3 st4">AJ</text>
<text transform="matrix(0.9427 0.3337 -0.3337 0.9427 715.4622 645.0469)" class="st2 st3 st4">AK</text>
<text transform="matrix(0.9427 0.3337 -0.3337 0.9427 715.4622 702.3802)" class="st2 st3 st4">AK</text>
<text transform="matrix(0.9449 -0.3273 0.3273 0.9449 836.9387 651.0561)" class="st2 st3 st4">AK</text>
<text transform="matrix(0.9449 -0.3273 0.3273 0.9449 842.9008 708.0312)" class="st2 st3 st4">AK</text>
<text transform="matrix(1 0 0 1 936.2461 446.9542)" class="st2 st3 st4">AE</text>
<text transform="matrix(6.123234e-17 -1 1 6.123234e-17 928.2297 563.2148)" class="st2 st3 st4">AH</text>
<text transform="matrix(1 0 0 1 1018.0794 654.4474)" class="st2 st3 st4">AF</text>
<text transform="matrix(1 0 0 1 1004.1628 686.9889)" class="st2 st3 st4">AA</text>
<text transform="matrix(6.123234e-17 -1 1 6.123234e-17 966.3141 556.2246)" class="st2 st3 st4">AD</text>
<text transform="matrix(6.123234e-17 -1 1 6.123234e-17 1089.4502 674.5996)" class="st2 st3 st4">AB</text>
<text transform="matrix(6.123234e-17 -1 1 6.123234e-17 1137.896 573.8057)" class="st2 st3 st4">AH</text>
<text transform="matrix(6.123234e-17 -1 1 6.123234e-17 1296.896 574.791)" class="st2 st3 st4">AH</text>
<text transform="matrix(6.123234e-17 -1 1 6.123234e-17 1344.563 582.3057)" class="st2 st3 st4">AH</text>
<text transform="matrix(6.123234e-17 -1 1 6.123234e-17 1504.2296 586.3057)" class="st2 st3 st4">AH</text>
<text transform="matrix(1 0 0 1 1146.4004 687.8093)" class="st2 st3 st4">AE</text>
<text transform="matrix(1 0 0 1 1270.7045 687.8089)" class="st2 st3 st4">AE</text>
<text transform="matrix(1 0 0 1 1349.9962 687.8094)" class="st2 st3 st4">AE</text>
<text transform="matrix(1 0 0 1 1478.3386 687.8096)" class="st2 st3 st4">AE</text>
<text transform="matrix(1 0 0 1 1349.9962 447.4012)" class="st2 st3 st4">AE</text>
<text transform="matrix(1 0 0 1 1468.1418 445.9017)" class="st2 st3 st4">AE</text>
<text transform="matrix(1 0 0 1 1203.9752 582.3067)" class="st5 st3 st4">AM</text>
<text transform="matrix(1 0 0 1 1203.9752 551.3064)" class="st5 st3 st4">AM</text>
<text transform="matrix(1 0 0 1 1203.9752 478.1149)" class="st5 st3 st4">AM</text>
<text transform="matrix(1 0 0 1 1209.9547 445.9019)" class="st2 st3 st4">AA</text>
<text transform="matrix(6.123234e-17 -1 1 6.123234e-17 1172.9039 521.5586)" class="st2 st3 st4">AG</text>
<text transform="matrix(6.123234e-17 -1 1 6.123234e-17 1261.2373 524.0586)" class="st2 st3 st4">AG</text>
<text transform="matrix(6.123234e-17 -1 1 6.123234e-17 1469.6715 516.8047)" class="st2 st3 st4">AN</text>
<text transform="matrix(6.123234e-17 -1 1 6.123234e-17 1380.6721 621.7139)" class="st2 st3 st4">AN</text>
<text transform="matrix(0.4653 0.8851 -0.8851 0.4653 1421.8997 607.6412)" class="st2 st3 st6">AO</text>
<text transform="matrix(0.4653 0.8851 -0.8851 0.4653 1406.0437 500.9745)" class="st2 st3 st6">AO</text>
<text transform="matrix(0.939 -0.3438 0.3438 0.939 574.8184 104.9814)" class="st2 st3 st7">AP</text>
<text transform="matrix(0.9382 0.3462 -0.3462 0.9382 570.0677 382.0797)" class="st2 st3 st8">AP</text>
<text transform="matrix(0.939 -0.3438 0.3438 0.939 969.8176 393.3151)" class="st2 st3 st7">AP</text>
<text transform="matrix(0.9456 0.3252 -0.3252 0.9456 915.6149 76.9321)" class="st2 st3 st7">AP</text>
<text transform="matrix(6.123234e-17 -1 1 6.123234e-17 432.4421 255.4912)" class="st2 st3 st4">AQ</text>
<text transform="matrix(6.123234e-17 -1 1 6.123234e-17 1141.1089 253)" class="st2 st3 st4">AQ</text>
<text transform="matrix(0.939 -0.3438 0.3438 0.939 620.1512 191.3147)" class="st2 st3 st7">AR</text>
<text transform="matrix(0.939 -0.3438 0.3438 0.939 904.6512 314.3144)" class="st2 st3 st7">AR</text>
<text transform="matrix(0.9413 0.3375 -0.3375 0.9413 616.082 297.0268)" class="st2 st3 st9">AR</text>
<text transform="matrix(0.949 0.3153 -0.3153 0.949 871.9932 167.1613)" class="st2 st3 st9">AR</text>
<text transform="matrix(6.123234e-17 -1 1 6.123234e-17 521.9961 263.7881)" class="st2 st3 st4">AS</text>
<text transform="matrix(6.123234e-17 -1 1 6.123234e-17 1052.8713 265.6582)" class="st2 st3 st4">AS:</text>
<text transform="matrix(6.123234e-17 -1 1 6.123234e-17 1261.2375 645.0469)" class="st2 st3 st4">AL</text>
<text transform="matrix(6.123234e-17 -1 1 6.123234e-17 1172.9036 645.0469)" class="st2 st3 st4">AL</text>
<text transform="matrix(1 0 0 1 242.4961 433.2674)" class="st3 st10">BA</text>
<line class="st11" x1="234.7" y1="438.1" x2="266.8" y2="438.1"/>
<text transform="matrix(1 0 0 1 448.971 436.0167)" class="st3 st10">BA</text>
<line class="st11" x1="443.8" y1="439.4" x2="475.9" y2="439.4"/>
<line class="st11" x1="651" y1="439.4" x2="665.7" y2="439.4"/>
<text transform="matrix(1 0 0 1 650.9999 436.017)" class="st3 st10">BB</text>
<g>
	<g>
		<line class="st11" x1="669.6" y1="439.4" x2="671.6" y2="439.4"/>
		<line class="st12" x1="675.6" y1="439.4" x2="897.4" y2="439.4"/>
		<line class="st11" x1="899.4" y1="439.4" x2="901.4" y2="439.4"/>
	</g>
</g>
<text transform="matrix(1 0 0 1 778.2045 436.0166)" class="st3 st10">BC</text>
<text transform="matrix(1 0 0 1 904.6514 436.0169)" class="st3 st10">BB</text>
<line class="st11" x1="903.5" y1="439.4" x2="918.2" y2="439.4"/>
<text transform="matrix(1 0 0 1 1101.0334 645.0465)" class="st3 st10">BA</text>
<line class="st11" x1="1093.6" y1="647.9" x2="1125.7" y2="647.9"/>
<text transform="matrix(1 0 0 1 1307.7461 433.2673)" class="st3 st10">BA</text>
<line class="st11" x1="1302.4" y1="439" x2="1334.5" y2="439"/>
<line class="st11" x1="1384.2" y1="439" x2="1458.6" y2="439"/>
<text transform="matrix(1 0 0 1 1401.0377 433.2672)" class="st3 st10">BD</text>
<g>
	<g>
		<polyline class="st13" points="1508.5,728.9 1508.5,730.9 1506.5,730.9 		"/>
		<line class="st14" x1="1502.5" y1="730.9" x2="64.5" y2="730.9"/>
		<polyline class="st13" points="62.5,730.9 60.5,730.9 60.5,728.9 		"/>
		<line class="st15" x1="60.5" y1="724.9" x2="60.5" y2="25.7"/>
		<polyline class="st13" points="60.5,23.7 60.5,21.7 62.5,21.7 		"/>
		<line class="st14" x1="66.5" y1="21.7" x2="1504.5" y2="21.7"/>
		<polyline class="st13" points="1506.5,21.7 1508.5,21.7 1508.5,23.7 		"/>
		<line class="st15" x1="1508.5" y1="27.7" x2="1508.5" y2="726.9"/>
	</g>
</g>
<text transform="matrix(1 0 0 1 775.2046 741.559)" class="st3 st10">tw</text>
<text transform="matrix(6.123234e-17 -1 1 6.123234e-17 49.1985 382.0791)" class="st3 st10">th</text>
<text transform="matrix(1 0 0 1 60.3711 17.8919)" class="st3 st10">All measurements were performed by measuring in Adobe Illustrator using the measure tool</text>
<text transform="matrix(0.9427 0.3337 -0.3337 0.9427 668.3712 447.4016)" class="st2 st3 st4">aa</text>
<text transform="matrix(1 0 0 1 109.8704 136.5109)" class="st3 st4">All angles are 90 degrees, except for:</text>
<text transform="matrix(1 0 0 1 109.2036 147.9918)" class="st3 st4">aa= 70.688 deg</text>
<text transform="matrix(1 0 0 1 109.2036 159.9918)" class="st3 st4">ab=109.312 deg</text>
<text transform="matrix(1 0 0 1 109.2036 171.9918)" class="st3 st4">ac = 141.376 deg </text>
<text transform="matrix(1 0 0 1 110.537 183.4085)" class="st3 st4">af = 27deg</text>
<text transform="matrix(1 0 0 1 110.537 195.4085)" class="st3 st4">ag = 117 deg</text>
<text transform="matrix(0.9427 0.3337 -0.3337 0.9427 667.3712 507.5683)" class="st2 st3 st4">ab</text>
<text transform="matrix(0.9571 -0.2898 0.2898 0.9571 890.6205 449.7731)" class="st2 st3 st4">aa</text>
<text transform="matrix(0.9571 -0.2898 0.2898 0.9571 890.6205 511.7731)" class="st2 st3 st4">ab</text>
<text transform="matrix(0.9427 0.3337 -0.3337 0.9427 668.3712 537.3808)" class="st2 st3 st4">aa</text>
<text transform="matrix(0.9427 0.3337 -0.3337 0.9427 667.3712 597.5477)" class="st2 st3 st4">ab</text>
<text transform="matrix(0.9571 -0.2898 0.2898 0.9571 890.6205 539.7526)" class="st2 st3 st4">aa</text>
<text transform="matrix(0.9571 -0.2898 0.2898 0.9571 890.6205 601.7526)" class="st2 st3 st4">ab</text>
<text transform="matrix(0.9427 0.3337 -0.3337 0.9427 668.3712 627.0681)" class="st2 st3 st4">aa</text>
<text transform="matrix(0.9427 0.3337 -0.3337 0.9427 667.3712 687.2349)" class="st2 st3 st4">ab</text>
<text transform="matrix(0.9571 -0.2898 0.2898 0.9571 890.6205 629.4399)" class="st2 st3 st4">aa</text>
<text transform="matrix(0.9571 -0.2898 0.2898 0.9571 890.6205 691.4399)" class="st2 st3 st4">ab</text>
<text transform="matrix(0.9571 -0.2898 0.2898 0.9571 1129.6205 336.7731)" class="st2 st3 st4">ab</text>
<text transform="matrix(0.9427 0.3337 -0.3337 0.9427 424.3711 333.0683)" class="st2 st3 st4">ab</text>
<text transform="matrix(0.9571 -0.2898 0.2898 0.9571 427.9538 155.4398)" class="st2 st3 st4">ab</text>
<text transform="matrix(0.9427 0.3337 -0.3337 0.9427 1131.2456 152.2609)" class="st2 st3 st4">ab</text>
<text transform="matrix(0.9999 1.634668e-02 -1.634668e-02 0.9999 779.6541 29.787)" class="st2 st3 st16">ac</text>
<text transform="matrix(0.9999 1.634668e-02 -1.634668e-02 0.9999 779.6522 458.0648)" class="st2 st3 st16">ac</text>
<text transform="matrix(0.9999 1.634668e-02 -1.634668e-02 0.9999 779.6517 548.4236)" class="st2 st3 st16">ac</text>
<text transform="matrix(0.9999 1.634668e-02 -1.634668e-02 0.9999 779.6523 638.715)" class="st2 st3 st16">ac</text>
<text transform="matrix(0.9999 1.634668e-02 -1.634668e-02 0.9999 779.6514 728.559)" class="st2 st3 st16">ac</text>
<text transform="matrix(0.9999 1.634668e-02 -1.634668e-02 0.9999 779.6564 147.9923)" class="st3 st16">ac</text>
<text transform="matrix(0.9999 1.634668e-02 -1.634668e-02 0.9999 779.6534 341.4927)" class="st3 st16">ac</text>
<text transform="matrix(0.9999 1.634668e-02 -1.634668e-02 0.9999 524.3727 252.9919)" class="st3 st16">ab</text>
<text transform="matrix(0.9999 1.634668e-02 -1.634668e-02 0.9999 524.374 234.991)" class="st3 st16">ab</text>
<text transform="matrix(0.9999 1.634668e-02 -1.634668e-02 0.9999 1032.3732 252.9909)" class="st3 st16">ab</text>
<text transform="matrix(0.9999 1.634668e-02 -1.634668e-02 0.9999 1032.3726 234.9914)" class="st3 st16">ab</text>
<text transform="matrix(0.9571 -0.2898 0.2898 0.9571 1384.9537 563.2148)" class="st3 st4">af</text>
<text transform="matrix(0.9571 -0.2898 0.2898 0.9571 1453.4539 569.8745)" class="st3 st4">af</text>
<text transform="matrix(0.9093 0.4161 -0.4161 0.9093 1374.4644 444.9198)" class="st2 st3 st17">ag</text>
<text transform="matrix(0.9683 0.2497 -0.2497 0.9683 1457.9956 683.2923)" class="st2 st3 st17">ag</text>
<g>
	<line class="st18" x1="1175.4" y1="481.1" x2="1175.4" y2="438.1"/>
	<g>
		<line class="st19" x1="1175.4" y1="481.1" x2="1175.4" y2="480.1"/>
		<line class="st20" x1="1175.4" y1="478.1" x2="1175.4" y2="440.1"/>
		<line class="st19" x1="1175.4" y1="439.1" x2="1175.4" y2="438.1"/>
	</g>
</g>
<line class="st21" x1="1175.4" y1="438.1" x2="1127.4" y2="438.1"/>
<text transform="matrix(1 0 0 1 1144.3999 448.5584)" class="st2 st3 st4">BE</text>
<text transform="matrix(1 0 0 1 1177.7461 463.3918)" class="st2 st3 st4">BF</text>
<text transform="matrix(1 0 0 1 653.0379 521.5585)" class="st3 st10">BB</text>
<line class="st19" x1="667.4" y1="511.1" x2="667.4" y2="526.9"/>
<text transform="matrix(0.9506 0.3104 -0.3104 0.9506 668.3715 613.3125)" class="st3 st10">BB</text>
<line class="st19" x1="667.4" y1="600.6" x2="667.4" y2="616.4"/>
<text transform="matrix(3.206530e-03 -1 1 3.206530e-03 769.6119 470.9539)" class="st3 st10">BB</text>
<g>
	<g>
		<line class="st19" x1="771.2" y1="456.5" x2="771.2" y2="457.5"/>
		<line class="st22" x1="771.2" y1="459.3" x2="771.2" y2="472.6"/>
		<line class="st19" x1="771.2" y1="473.5" x2="771.2" y2="474.5"/>
	</g>
</g>
<g>
	<g>
		<line class="st11" x1="784.4" y1="22.9" x2="784.4" y2="23.9"/>
		<line class="st12" x1="784.4" y1="25.9" x2="784.4" y2="137.7"/>
		<line class="st11" x1="784.4" y1="138.7" x2="784.4" y2="139.7"/>
	</g>
</g>
<text transform="matrix(6.123234e-17 -1 1 6.123234e-17 797.0363 113.0859)" class="st3 st4">BH:</text>
<text transform="matrix(0.9999 1.634668e-02 -1.634668e-02 0.9999 780.318 475.9473)" class="st3 st16">ac</text>
<text transform="matrix(0.9999 1.634668e-02 -1.634668e-02 0.9999 779.6505 564.0917)" class="st3 st16">ac</text>
<text transform="matrix(0.9999 1.634668e-02 -1.634668e-02 0.9999 780.3171 654.4477)" class="st3 st16">ac</text>
</svg>
