<?xml version="1.0" encoding="UTF-8"?>
<svg xmlns="http://www.w3.org/2000/svg" viewBox="0 0 843.24 125">
  <defs>
    <style>
      .cls-1 {
        stroke: #fff;
      }

      .cls-1, .cls-2 {
        fill: none;
        stroke-miterlimit: 10;
      }

      .cls-2 {
        stroke: #ffd200;
      }
    </style>
  </defs>
  <g id="Layer_8" data-name="Layer 8">
    <path class="cls-1" d="m829.58,32.93l-16.76,44.65-16.61-44.65h-11.99l3.84,9.96-12.92,34.69-16.76-44.65h-13.07l25.98,64.56h7.23l15.53-39.37,15.22,39.37h7.38l25.83-64.56h-12.92Z"/>
  </g>
  <g id="Layer_4" data-name="Layer 4">
    <path class="cls-1" d="m725.18,35.95c-5.23-2.87-11.07-4.37-17.53-4.37s-12.15,1.51-17.22,4.53c-5.07,3.02-9.23,6.94-12.3,12.07-3.08,4.98-4.61,10.71-4.61,16.89s1.54,12.07,4.61,17.2c3.08,5.13,7.07,9.2,12.3,12.22,5.23,3.02,10.92,4.52,17.22,4.52s12.3-1.51,17.53-4.52c5.23-3.02,9.38-7.09,12.45-12.22,3.08-5.13,4.61-10.86,4.61-17.2s-1.54-11.92-4.61-16.89c-3.07-4.98-7.23-9.2-12.45-12.22Zm1.38,40.43c-1.84,3.32-4.46,5.88-7.53,7.84-3.23,1.96-6.92,2.87-11.22,2.87-4,0-7.69-.9-10.92-2.87s-5.84-4.52-7.53-7.84c-1.85-3.32-2.77-7.09-2.77-11.31s.92-7.84,2.77-11.16c1.84-3.32,4.3-5.88,7.53-7.69s6.92-2.71,10.92-2.71c4.3,0,7.99.9,11.07,2.71,3.23,1.81,5.69,4.37,7.53,7.69,1.85,3.32,2.77,6.94,2.77,11.16.15,4.22-.77,7.99-2.61,11.31Z"/>
  </g>
  <g id="Layer_5" data-name="Layer 5">
    <path class="cls-1" d="m656.45.5h-12.46v84.17c0,7.09,5.84,12.82,13.07,12.82h10.46v-11.62h-11.07V.5Z"/>
  </g>
  <g id="Layer_6" data-name="Layer 6">
    <path class="cls-1" d="m622.62.5h-12.61v84.17c0,7.09,5.84,12.82,13.07,12.82h10.46v-11.62h-11.07V.5h.15Z"/>
  </g>
  <g id="Layer_3" data-name="Layer 3">
    <path class="cls-1" d="m469.03,124.49l43.1-91.56h13.78l-43.22,91.57h-13.67Z"/>
  </g>
  <g id="Layer_7" data-name="Layer 7">
    <path class="cls-1" d="m580.18,35.65c-4.77-2.72-9.99-4.07-15.99-4.07-6.3,0-12.15,1.51-17.22,4.37-5.07,3.02-9.23,6.94-12.15,12.07-2.92,5.13-4.46,10.71-4.46,17.04s1.54,12.22,4.61,17.2c3.08,5.13,7.23,9.05,12.46,12.07,5.23,2.87,11.07,4.37,17.84,4.37,5.23,0,9.99-.9,14.45-2.87s8.46-4.68,11.69-8.3l-8-7.99c-2.15,2.56-4.92,4.38-7.99,5.73-3.08,1.21-6.46,1.96-10.15,1.96-4.46,0-8.3-.9-11.84-2.71-3.38-1.81-6-4.52-7.84-7.84-1.08-2.11-1.84-4.37-2.31-6.79h51.36c.31-1.21.46-2.41.61-3.47.15-1.06.15-1.96.15-2.87,0-6.18-1.38-11.62-4-16.44-2.77-4.98-6.46-8.75-11.22-11.46Zm-27.52,9.96c3.23-1.81,6.92-2.71,11.22-2.71,4,0,7.53.9,10.46,2.56,2.92,1.66,5.08,4.07,6.61,7.09,1.08,2.11,1.69,4.53,2.15,7.09h-39.98c.46-2.26,1.08-4.53,2.15-6.34,1.69-3.32,4.15-5.88,7.38-7.69Z"/>
  </g>
  <g id="Layer_2" data-name="Layer 2">
    <path class="cls-1" d="m478.87,77.75l6.81-14.49-12.66-30.34h-13.84l19.68,44.83Z"/>
  </g>
  <g id="Layer_9" data-name="Layer 9">
    <path class="cls-1" d="m438.72,35.65c-4.77-2.72-9.99-4.07-15.99-4.07-6.3,0-12.15,1.51-17.22,4.37-5.07,3.02-9.23,6.94-12.15,12.07-2.92,5.13-4.46,10.71-4.46,17.04s1.54,12.22,4.61,17.2c3.08,5.13,7.23,9.05,12.45,12.07,5.23,2.87,11.07,4.37,17.84,4.37,5.23,0,9.99-.9,14.45-2.87s8.46-4.68,11.69-8.3l-7.99-7.99c-2.15,2.56-4.92,4.38-8,5.73-3.08,1.21-6.46,1.96-10.15,1.96-4.46,0-8.3-.9-11.84-2.71-3.38-1.81-6-4.52-7.84-7.84-1.08-2.11-1.85-4.37-2.31-6.79h51.2c.31-1.21.46-2.41.61-3.47.15-1.06.15-1.96.15-2.87,0-6.18-1.38-11.62-4-16.44-2.61-4.98-6.3-8.75-11.07-11.46Zm-27.52,9.96c3.23-1.81,6.92-2.71,11.23-2.71,4,0,7.53.9,10.46,2.56,2.92,1.66,5.07,4.07,6.61,7.09,1.08,2.11,1.69,4.53,2.15,7.09h-39.98c.46-2.26,1.08-4.53,2.15-6.34,1.69-3.32,4.15-5.88,7.38-7.69Z"/>
  </g>
  <g id="Layer_10" data-name="Layer 10">
    <path class="cls-1" d="m361.38,41.98c-2.31-3.02-5.23-5.43-8.76-7.24-4-2.11-8.46-3.02-13.38-3.02-6,0-11.38,1.51-16.14,4.53-4.77,3.02-8.61,7.09-11.38,12.07-2.77,5.13-4.15,10.71-4.15,17.05s1.38,12.07,4.15,17.04c2.77,5.13,6.61,9.05,11.38,12.07,4.77,2.87,10.15,4.38,16.14,4.38,5.08,0,9.53-1.06,13.53-3.02,3.54-1.81,6.3-4.22,8.61-7.24v8.9h12.61V.5h-12.61v41.48Zm-9.23,42.39c-3.08,1.96-6.77,2.87-10.92,2.87s-7.69-.9-10.92-2.71-5.69-4.52-7.53-7.84-2.77-7.24-2.77-11.62.92-8.15,2.77-11.46c1.85-3.32,4.3-5.88,7.38-7.69,3.08-1.81,6.77-2.71,10.92-2.71s7.84.9,10.92,2.87c3.08,1.96,5.54,4.52,7.38,7.84,1.69,3.32,2.61,7.09,2.61,11.46s-.92,7.99-2.61,11.31c-1.54,3.32-4,5.88-7.23,7.69Z"/>
  </g>
  <g id="Layer_11" data-name="Layer 11">
    <path class="cls-1" d="m279.27,35.95c-5.23-2.87-11.07-4.37-17.53-4.37s-12.15,1.51-17.22,4.53c-5.07,3.02-9.22,6.94-12.3,12.07-3.07,4.98-4.61,10.71-4.61,16.89s1.54,12.07,4.61,17.2c3.08,5.13,7.07,9.2,12.3,12.22,5.23,3.02,10.92,4.52,17.22,4.52s12.3-1.51,17.53-4.52c5.23-3.02,9.38-7.09,12.46-12.22,3.07-5.13,4.61-10.86,4.61-17.2s-1.54-11.92-4.61-16.89c-3.08-4.98-7.38-9.2-12.46-12.22Zm1.23,40.43c-1.85,3.32-4.46,5.88-7.53,7.84-3.23,1.96-6.92,2.87-11.22,2.87-4,0-7.69-.9-10.92-2.87s-5.84-4.52-7.53-7.84c-1.85-3.32-2.77-7.09-2.77-11.31s.92-7.84,2.77-11.16c1.85-3.32,4.3-5.88,7.53-7.69s6.92-2.71,10.92-2.71c4.3,0,7.99.9,11.07,2.71,3.23,1.81,5.69,4.37,7.53,7.69,1.85,3.32,2.77,6.94,2.77,11.16.15,4.22-.77,7.99-2.61,11.31Z"/>
  </g>
  <g id="Layer_12" data-name="Layer 12">
    <path class="cls-1" d="m183.63,46.2c3.23-1.81,6.92-2.71,11.07-2.71,3.38,0,6.61.6,9.53,1.81,2.92,1.21,5.38,3.02,7.53,5.43l8.3-8.15c-3.07-3.47-6.92-6.18-11.22-8.15-4.31-1.81-9.07-2.71-14.15-2.71-6.46,0-12.3,1.51-17.53,4.37-5.23,3.02-9.38,6.94-12.3,12.07-2.92,5.13-4.46,10.71-4.46,17.05s1.54,11.92,4.46,17.04c2.92,5.13,7.07,9.2,12.3,12.22,5.23,3.02,11.07,4.53,17.53,4.53,5.08,0,9.84-.9,14.15-2.87,4.31-1.96,8.15-4.53,11.07-8l-8.15-8.15c-2.15,2.41-4.61,4.07-7.53,5.43-2.92,1.21-6.15,1.81-9.69,1.81-4.15,0-7.84-.9-11.07-2.87s-5.84-4.52-7.53-7.69c-1.85-3.32-2.77-6.94-2.77-11.31s.92-7.99,2.77-11.31c2-3.47,4.46-6.03,7.69-7.84Z"/>
  </g>
  <g id="Layer_13" data-name="Layer 13">
    <path class="cls-1" d="m47.94,110.77c.55.53,13.66,13.01,14.37,13.3.71.29,1.48.43,2.25.43s1.54-.15,2.25-.43c.71-.29,1.36-.71,1.91-1.23l58.19-56.31c.54-.53.98-1.15,1.27-1.85.29-.69.45-1.43.45-2.18s-.15-1.49-.45-2.18c-.3-.69-.73-1.32-1.27-1.85l-12.47-12.07-20.78,20.11c-.55.53-1.19.95-1.91,1.23-.71.29-1.48.43-2.25.43s-1.54-.15-2.25-.43c-.71-.29-1.36-.71-1.91-1.23l-20.78-20.1-16.62,16.09,20.78,20.11c.54.53.98,1.15,1.27,1.85.29.69.45,1.43.45,2.18s-.15,1.49-.45,2.18c-.3.69-.73,1.32-1.27,1.85l-20.78,20.11"/>
  </g>
  <g id="Layer_14" data-name="Layer 14">
    <path class="cls-2" d="m31.32,30.32L2.22,58.48c-.55.53-.98,1.15-1.27,1.85-.3.69-.45,1.43-.45,2.18s.15,1.49.45,2.18c.3.69.73,1.32,1.27,1.85l37.41,36.2,16.63-16.09-20.78-20.11c-.55-.53-.98-1.15-1.28-1.85-.29-.69-.45-1.43-.45-2.18s.15-1.49.45-2.18c.3-.69.73-1.32,1.28-1.85l24.94-24.13c.55-.53,1.19-.95,1.91-1.23.71-.29,1.48-.43,2.25-.43s1.54.15,2.25.43c.71.29,1.36.71,1.91,1.23l20.78,20.11,16.62-16.09L68.72,2.17c-.54-.53-1.19-.95-1.91-1.23-.71-.29-1.48-.43-2.25-.43s-1.54.15-2.25.43c-.71.29-1.36.7-1.91,1.23l-29.09,28.16Z"/>
  </g>
</svg>