<?xml version="1.0" encoding="utf-8"?>
<!-- Generator: Adobe Illustrator 27.5.0, SVG Export Plug-In . SVG Version: 6.00 Build 0)  -->
<svg version="1.1" xmlns="http://www.w3.org/2000/svg" xmlns:xlink="http://www.w3.org/1999/xlink" x="0px" y="0px"
	 viewBox="0 0 1024 445.3" style="enable-background:new 0 0 1024 445.3;" xml:space="preserve">
<style type="text/css">
	.st0{fill:none;stroke:#000000;stroke-miterlimit:10;}
	.st1{fill:none;stroke:#231F20;stroke-miterlimit:10;}
</style>
<g id="Logo">
	<polygon id="A_filling" class="st0" points="285.5,237 330.3,237 308.2,173.3 	"/>
	<path id="Backplate" class="st0" d="M89.5,61V33.2V12h-77v21h55v400h22v-42h91v21h419v-21h406V61H89.5z M577.5,315.7
		c-24.5,0-46.7-10.4-62.5-26.9c-5.6-5.9-10.5-12.7-14.5-20.1V314h-20.4l-87.6-125.7V314h-2.6h-22.9H362l-21.6-53h-64.7
		c-7,17-16,38-21.6,53h-0.8H226h-83.5V134h26v154h67.8l62.1-156h19.1l49,124.4V133.6l20.1,0.3l87.9,127V134h26v46
		c4-7.4,9-14.1,14.5-20c15.7-16.2,37.9-26.6,62.4-26.6c41.2,0,73.7,25.7,84.1,66.7h-25.8c-9.5-27-31.7-40.9-58.2-40.9
		c-17.3,0-33,7.4-44.3,19.2c-11.3,11.9-18.6,27.8-18.6,46.3c0,18,7.2,34,18.6,45.8c11.3,11.9,27.1,19.4,44.3,19.4
		c27.3,0,50.5-15.9,59.8-42.9h25.5C652.5,288,619.5,315.7,577.5,315.7z M815.4,362.9c-77.2,0-139.8-62.6-139.8-139.8
		S738.2,83.3,815.4,83.3s139.8,62.6,139.8,139.8S892.6,362.9,815.4,362.9z"/>
</g>
<g id="Layer_2">
	<path id="Fan" class="st1" d="M932.2,291.5c9.6-15.2,16.8-47.9,16.8-47.9c-40.1-21.5-80.5-18.1-86.1-17.5c0-0.9,0.1-1.7,0.1-2.6
		c0-8.2-2.1-15.9-5.8-22.7l0.7,0.9l88.3-11.7c-3.6-17.6-21.2-46.1-21.2-46.1c-45.6,12.9-72.7,45.5-74.4,47.6
		c-5.9-6.5-13.7-11.3-22.4-13.7l0,0l52.9-71.6c-15.2-9.6-47.9-16.8-47.9-16.8c-23.1,43.1-17.4,86.7-17.4,86.7
		c-8.7,0-16.9,2.4-23.9,6.5l1.6-1.2l-13.3-88c-17.5,4-45.7,22-45.7,22c13.8,45.7,47.3,72.2,49,73.6c-6.4,6-11.1,13.8-13.4,22.5
		l0.2-1.8l-72.3-51.9c-9.4,15.3-16.2,48.1-16.2,48.1c41.8,21.7,83.6,16.7,86.8,16.3c0,0.4,0,0.8,0,1.3c0,7.9,2,15.4,5.4,22
		l-88.1,10.2c3.3,17.6,20.4,46.4,20.4,46.4c45.4-12,72.9-43.6,75.1-46.3c5.5,5.9,12.5,10.3,20.3,12.8l-0.4-0.1l-53,71.5
		C763.3,349.7,796,357,796,357c21.9-40.5,18.2-81.5,17.6-86.2c0.7,0,1.4,0.1,2,0.1c8,0,15.5-2,22.1-5.5l12.1,87.6
		c17.5-3.7,46-21.4,46-21.4c-12.5-43.5-43-70-47.5-73.8c5.6-5.3,9.8-11.9,12.3-19.4l0,0.3L932.2,291.5z"/>
</g>
</svg>
