
<svg xmlns="http://www.w3.org/2000/svg" version="1.1" xmlns:xlink="http://www.w3.org/1999/xlink" preserveAspectRatio="none" x="0px" y="0px" width="1920px" height="1080px" viewBox="0 0 1920 1080">
<defs>
<path id="Symbol_1_0_Layer0_0_1_STROKES" stroke="#BB1E4E" stroke-width="1" stroke-linejoin="miter" stroke-linecap="butt" stroke-miterlimit="10" fill="none" d="
M 459.9568023681641 411.60017089843757
L 459.9568023681641 561.0850952148438 0.0031890869141193434 400.03744812011723 0.0031890869141193434 250.55252380371095 459.9568023681641 411.60017089843757 Z"/>

<path id="Symbol_1_0_Layer0_1_1_STROKES" stroke="#BB1E4E" stroke-width="1" stroke-linejoin="miter" stroke-linecap="butt" stroke-miterlimit="10" fill="none" d="
M 0.0031890869141193434 250.55252380371095
L 0.0031890869141193434 161.05321655273437"/>

<path id="Symbol_1_0_Layer0_2_1_STROKES" stroke="#BB1E4E" stroke-width="1" stroke-linejoin="miter" stroke-linecap="butt" stroke-miterlimit="10" fill="none" d="
M 459.9568023681641 0.0055694580078125
L 459.9568023681641 149.49049377441403 127.76808166503912 265.8204284667969 127.76808166503912 295.27023620605473 0.0031890869141193434 250.55252380371095 127.76808166503912 205.77092895507812 0.0031890869141193434 161.05321655273437 459.9568023681641 0.0055694580078125 Z"/>

<path id="Symbol_1_0_Layer0_3_1_STROKES" stroke="#BB1E4E" stroke-width="1" stroke-linejoin="miter" stroke-linecap="butt" stroke-miterlimit="10" fill="none" d="
M 459.9568023681641 411.60017089843757
L 459.9568023681641 561.0850952148438 919.9104156494138 400.03744812011723 919.9104156494138 250.55252380371095 459.9568023681641 411.60017089843757 Z"/>

<path id="Symbol_1_0_Layer0_4_1_STROKES" stroke="#BB1E4E" stroke-width="1" stroke-linejoin="miter" stroke-linecap="butt" stroke-miterlimit="10" fill="none" d="
M 919.9104156494138 250.55252380371095
L 919.9104156494138 161.05321655273437"/>

<path id="Symbol_1_0_Layer0_5_1_STROKES" stroke="#BB1E4E" stroke-width="1" stroke-linejoin="miter" stroke-linecap="butt" stroke-miterlimit="10" fill="none" d="
M 459.9568023681641 0.0055694580078125
L 459.9568023681641 149.49049377441403 792.1455230712891 265.8204284667969 792.1455230712891 295.27023620605473 919.9104156494138 250.55252380371095 792.1455230712891 205.77092895507812 919.9104156494138 161.05321655273437 459.9568023681641 0.0055694580078125 Z"/>

<path id="Symbol_1_0_Layer0_6_1_STROKES" stroke="#BB1E4E" stroke-width="1" stroke-linejoin="miter" stroke-linecap="butt" stroke-miterlimit="10" fill="none" d="
M 792.1455230712891 265.884310913086
L 792.1455230712891 204.68492736816407"/>

<path id="Symbol_1_0_Layer0_7_1_STROKES" stroke="#BB1E4E" stroke-width="1" stroke-linejoin="miter" stroke-linecap="butt" stroke-miterlimit="10" fill="none" d="
M 127.76808166503912 265.884310913086
L 127.76808166503912 204.68492736816407"/>

<path id="ChevvyTop_0_Layer0_0_1_STROKES" stroke="#BB1E4E" stroke-width="1" stroke-linejoin="miter" stroke-linecap="butt" stroke-miterlimit="10" fill="none" d="
M 150.4681678771973 53.33277587890632
L 150.4681678771973 145.32349853515632 0.9814582824707259 93.00377502441404 0.9814582824707259 1.0130523681640398 150.4681678771973 53.33277587890632 Z"/>

<path id="ChevvyTop_0_Layer0_1_1_STROKES" stroke="#BB1E4E" stroke-width="1" stroke-linejoin="miter" stroke-linecap="butt" stroke-miterlimit="10" fill="none" d="
M 299.95487747192374 1.0130523681640398
L 299.95487747192374 93.00377502441404 150.4681678771973 145.32349853515632 150.4681678771973 53.33277587890632 299.95487747192374 1.0130523681640398 Z"/>

<path id="ChevvyMiddle_0_Layer0_0_1_STROKES" stroke="#BB1E4E" stroke-width="1" stroke-linejoin="miter" stroke-linecap="butt" stroke-miterlimit="10" fill="none" d="
M 150.4681678771973 53.32117919921882
L 150.4681678771973 145.31190185546882 0.9814582824707259 92.99217834472654 0.9814582824707259 1.0014556884765398 150.4681678771973 53.32117919921882 Z"/>

<path id="ChevvyMiddle_0_Layer0_1_1_STROKES" stroke="#BB1E4E" stroke-width="1" stroke-linejoin="miter" stroke-linecap="butt" stroke-miterlimit="10" fill="none" d="
M 299.95487747192374 1.0014556884765398
L 299.95487747192374 92.99217834472654 150.4681678771973 145.31190185546882 150.4681678771973 53.32117919921882 299.95487747192374 1.0014556884765398 Z"/>

<path id="ChevvyBottom_0_Layer0_0_1_STROKES" stroke="#BB1E4E" stroke-width="1" stroke-linejoin="miter" stroke-linecap="butt" stroke-miterlimit="10" fill="none" d="
M 150.4681678771973 53.30958251953132
L 150.4681678771973 145.30030517578132 0.9814582824707259 92.98058166503904 0.9814582824707259 0.9898590087890398 150.4681678771973 53.30958251953132 Z"/>

<path id="ChevvyBottom_0_Layer0_1_1_STROKES" stroke="#BB1E4E" stroke-width="1" stroke-linejoin="miter" stroke-linecap="butt" stroke-miterlimit="10" fill="none" d="
M 299.95487747192374 0.9898590087890398
L 299.95487747192374 92.98058166503904 150.4681678771973 145.30030517578132 150.4681678771973 53.30958251953132 299.95487747192374 0.9898590087890398 Z"/>

<path id="T_0_Layer0_0_1_STROKES" stroke="#BB1E4E" stroke-width="1" stroke-linejoin="miter" stroke-linecap="butt" stroke-miterlimit="10" fill="none" d="
M 222.03908538818362 1.0130523681640398
L 222.03908538818362 55.95195617675779 142.1850738525391 55.95195617675779 142.1850738525391 322.98058166503904 80.85719299316406 322.98058166503904 80.85719299316406 55.95195617675779 1.0031814575195312 55.95195617675779 1.0031814575195312 1.0130523681640398 222.03908538818362 1.0130523681640398 Z"/>

<path id="E_0_Layer0_0_1_STROKES" stroke="#BB1E4E" stroke-width="1" stroke-linejoin="miter" stroke-linecap="butt" stroke-miterlimit="10" fill="none" d="
M 62.27132949829104 55.95195617675779
L 62.27132949829104 134.52736511230466 221.97935256958016 134.52736511230466 221.97935256958016 189.46626892089841 62.27132949829104 189.46626892089841 62.27132949829104 268.0416778564453 221.97935256958016 268.0416778564453 221.97935256958016 322.98058166503904 1.0073318481445312 322.98058166503904 1.0073318481445312 1.0130523681640398 221.97935256958016 1.0130523681640398 221.97935256958016 55.95195617675779 62.27132949829104 55.95195617675779 Z"/>

<path id="S_0_Layer0_0_1_STROKES" stroke="#BB1E4E" stroke-width="1" stroke-linejoin="miter" stroke-linecap="butt" stroke-miterlimit="10" fill="none" d="
M 62.32547988891611 55.95195617675779
L 62.32547988891611 134.52736511230466 222.03350296020517 134.52736511230466 222.03350296020517 322.98058166503904 0.9975990295411066 322.98058166503904 0.9975990295411066 268.0416778564453 160.70562210083017 268.0416778564453 160.70562210083017 189.46626892089841 0.9975990295411066 189.46626892089841 0.9975990295411066 1.0130523681640398 222.03350296020517 1.0130523681640398 222.03350296020517 55.95195617675779 62.32547988891611 55.95195617675779 Z"/>

<path id="L_0_Layer0_0_1_STROKES" stroke="#BB1E4E" stroke-width="1" stroke-linejoin="miter" stroke-linecap="butt" stroke-miterlimit="10" fill="none" d="
M 222.03873672485338 268.0416778564453
L 222.03873672485338 322.98058166503904 1.0028327941893167 322.98058166503904 1.0028327941893167 1.0130523681640398 62.33071365356432 1.0130523681640398 62.33071365356432 268.0416778564453 222.03873672485338 268.0416778564453 Z"/>

<path id="A_0_Layer0_0_1_STROKES" stroke="#BB1E4E" stroke-width="1" stroke-linejoin="miter" stroke-linecap="butt" stroke-miterlimit="10" fill="none" d="
M 160.71500625610338 134.52736511230466
L 62.33486404418932 134.52736511230466 62.33486404418932 55.95195617675779 160.71500625610338 55.95195617675779 160.71500625610338 134.52736511230466 Z
M 1.0069831848143167 1.0130523681640398
L 1.0069831848143167 322.98058166503904 62.33486404418932 322.98058166503904 62.33486404418932 189.46626892089841 160.71500625610338 189.46626892089841 160.71500625610338 322.98058166503904 222.04288711547838 322.98058166503904 222.04288711547838 1.0130523681640398 1.0069831848143167 1.0130523681640398 Z"/>

<path id="N_0_Layer0_0_1_STROKES" stroke="#BB1E4E" stroke-width="1" stroke-linejoin="miter" stroke-linecap="butt" stroke-miterlimit="10" fill="none" d="
M 222.04703750610338 1.0130523681640398
L 222.04703750610338 322.98058166503904 160.71915664672838 322.98058166503904 62.33901443481432 128.77794494628904 62.33901443481432 322.98058166503904 1.0111335754393167 322.98058166503904 1.0111335754393167 1.0130523681640398 62.33901443481432 1.0130523681640398 160.71915664672838 195.21568908691404 160.71915664672838 1.0130523681640398 222.04703750610338 1.0130523681640398 Z"/>
</defs>

<g transform="matrix( 1, 0, 0, 1, 449.55,34.95) ">
<g transform="matrix( 1, 0, 0, 1, 47.45,29.05) ">
<g transform="matrix( 1.27764892578125, 0, 0, 1.27764892578125, -491.7,-27.4) ">
<use xlink:href="#Symbol_1_0_Layer0_0_1_STROKES" transform="matrix( 0.782684326171875, 0, 0, 0.782684326171875, 384.8,21.4) "/>
</g>

<g transform="matrix( 1.27764892578125, 0, 0, 1.27764892578125, -491.7,-27.4) ">
<use xlink:href="#Symbol_1_0_Layer0_1_1_STROKES" transform="matrix( 0.782684326171875, 0, 0, 0.782684326171875, 384.8,21.4) "/>
</g>

<g transform="matrix( 1.27764892578125, 0, 0, 1.27764892578125, -491.7,-27.4) ">
<use xlink:href="#Symbol_1_0_Layer0_2_1_STROKES" transform="matrix( 0.782684326171875, 0, 0, 0.782684326171875, 384.8,21.4) "/>
</g>

<g transform="matrix( 1.27764892578125, 0, 0, 1.27764892578125, -491.7,-27.4) ">
<use xlink:href="#Symbol_1_0_Layer0_3_1_STROKES" transform="matrix( 0.782684326171875, 0, 0, 0.782684326171875, 384.8,21.4) "/>
</g>

<g transform="matrix( 1.27764892578125, 0, 0, 1.27764892578125, -491.7,-27.4) ">
<use xlink:href="#Symbol_1_0_Layer0_4_1_STROKES" transform="matrix( 0.782684326171875, 0, 0, 0.782684326171875, 384.8,21.4) "/>
</g>

<g transform="matrix( 1.27764892578125, 0, 0, 1.27764892578125, -491.7,-27.4) ">
<use xlink:href="#Symbol_1_0_Layer0_5_1_STROKES" transform="matrix( 0.782684326171875, 0, 0, 0.782684326171875, 384.8,21.4) "/>
</g>

<g transform="matrix( 1.27764892578125, 0, 0, 1.27764892578125, -491.7,-27.4) ">
<use xlink:href="#Symbol_1_0_Layer0_6_1_STROKES" transform="matrix( 0.782684326171875, 0, 0, 0.782684326171875, 384.8,21.4) "/>
</g>

<g transform="matrix( 1.27764892578125, 0, 0, 1.27764892578125, -491.7,-27.4) ">
<use xlink:href="#Symbol_1_0_Layer0_7_1_STROKES" transform="matrix( 0.782684326171875, 0, 0, 0.782684326171875, 384.8,21.4) "/>
</g>
</g>
</g>

<g transform="matrix( 1, 0, 0, 1, 806.5,594.75) ">
<g transform="matrix( 1.2776641845703125, 0, 0, 1.27764892578125, -801.2,-558.15) ">
<use xlink:href="#ChevvyTop_0_Layer0_0_1_STROKES" transform="matrix( 0.7826690673828125, 0, 0, 0.782684326171875, 627.05,436.85) "/>
</g>

<g transform="matrix( 1.2776641845703125, 0, 0, 1.27764892578125, -801.2,-558.15) ">
<use xlink:href="#ChevvyTop_0_Layer0_1_1_STROKES" transform="matrix( 0.7826690673828125, 0, 0, 0.782684326171875, 627.05,436.85) "/>
</g>
</g>

<g transform="matrix( 1.0399932861328125, 0, 0, 1.0399932861328125, 800.5,706.8) ">
<g transform="matrix( 1.2776641845703125, 0, 0, 1.27764892578125, -801.2,-673.15) ">
<use xlink:href="#ChevvyMiddle_0_Layer0_0_1_STROKES" transform="matrix( 0.7826690673828125, 0, 0, 0.782684326171875, 627.05,526.85) "/>
</g>

<g transform="matrix( 1.2776641845703125, 0, 0, 1.27764892578125, -801.2,-673.15) ">
<use xlink:href="#ChevvyMiddle_0_Layer0_1_1_STROKES" transform="matrix( 0.7826690673828125, 0, 0, 0.782684326171875, 627.05,526.85) "/>
</g>
</g>

<g transform="matrix( 1.059967041015625, 0, 0, 1.059967041015625, 797.45,820.35) ">
<g transform="matrix( 1.2776641845703125, 0, 0, 1.27764892578125, -801.2,-788.15) ">
<use xlink:href="#ChevvyBottom_0_Layer0_0_1_STROKES" transform="matrix( 0.7826690673828125, 0, 0, 0.782684326171875, 627.05,616.85) "/>
</g>

<g transform="matrix( 1.2776641845703125, 0, 0, 1.27764892578125, -801.2,-788.15) ">
<use xlink:href="#ChevvyBottom_0_Layer0_1_1_STROKES" transform="matrix( 0.7826690673828125, 0, 0, 0.782684326171875, 627.05,616.85) "/>
</g>
</g>

<g transform="matrix( 1, 0, 0, 1, 31,594.75) ">
<g transform="matrix( 1.2776641845703125, 0, 0, 1.27764892578125, -25.7,-558.15) ">
<use xlink:href="#T_0_Layer0_0_1_STROKES" transform="matrix( 0.7826690673828125, 0, 0, 0.782684326171875, 20.1,436.85) "/>
</g>
</g>

<g transform="matrix( 1, 0, 0, 1, 296.75,594.75) ">
<g transform="matrix( 1.2776641845703125, 0, 0, 1.27764892578125, -291.45,-558.15) ">
<use xlink:href="#E_0_Layer0_0_1_STROKES" transform="matrix( 0.7826690673828125, 0, 0, 0.782684326171875, 228.1,436.85) "/>
</g>
</g>

<g transform="matrix( 1, 0, 0, 1, 562.45,594.75) ">
<g transform="matrix( 1.2776641845703125, 0, 0, 1.27764892578125, -557.15,-558.15) ">
<use xlink:href="#S_0_Layer0_0_1_STROKES" transform="matrix( 0.7826690673828125, 0, 0, 0.782684326171875, 436.05,436.85) "/>
</g>
</g>

<g transform="matrix( 1, 0, 0, 1, 1128.45,594.75) ">
<g transform="matrix( 1.2776641845703125, 0, 0, 1.27764892578125, -1123.15,-558.15) ">
<use xlink:href="#L_0_Layer0_0_1_STROKES" transform="matrix( 0.7826690673828125, 0, 0, 0.782684326171875, 879.05,436.85) "/>
</g>
</g>

<g transform="matrix( 1, 0, 0, 1, 1394.2,594.75) ">
<g transform="matrix( 1.2776641845703125, 0, 0, 1.27764892578125, -1388.9,-558.15) ">
<use xlink:href="#A_0_Layer0_0_1_STROKES" transform="matrix( 0.7826690673828125, 0, 0, 0.782684326171875, 1087.05,436.85) "/>
</g>
</g>

<g transform="matrix( 1, 0, 0, 1, 1659.95,594.75) ">
<g transform="matrix( 1.2776641845703125, 0, 0, 1.27764892578125, -1654.65,-558.15) ">
<use xlink:href="#N_0_Layer0_0_1_STROKES" transform="matrix( 0.7826690673828125, 0, 0, 0.782684326171875, 1295.05,436.85) "/>
</g>
</g>
</svg>
