
<svg xmlns="http://www.w3.org/2000/svg" version="1.1" xmlns:xlink="http://www.w3.org/1999/xlink" preserveAspectRatio="none" x="0px" y="0px" width="1920px" height="1080px" viewBox="0 0 1920 1080">
<defs>
<path id="Layer1_0_1_STROKES" stroke="#CC33CC" stroke-width="1" stroke-linejoin="miter" stroke-linecap="butt" stroke-miterlimit="10" fill="none" d="
M 571.2965148925781 532.1971069335938
L 651.9359680175781 532.1971069335938 612.0662384033202 417.53788452148444 571.2965148925781 532.1971069335938 Z"/>

<path id="Layer1_1_1_STROKES" stroke="#CC33CC" stroke-width="1" stroke-linejoin="miter" stroke-linecap="butt" stroke-miterlimit="10" fill="none" d="
M 218.49890747070313 215.39925537109374
L 218.49890747070313 127.199853515625 79.89984741210938 127.199853515625 79.89984741210938 164.99959716796874 178.89917602539063 164.99959716796874 178.89917602539063 884.9947143554688 218.49890747070313 884.9947143554688 218.49890747070313 809.3952270507813 382.29779663085935 809.3952270507813 382.29779663085935 847.194970703125 1136.4926818847657 847.194970703125 1136.4926818847657 809.3952270507813 1867.2877258300782 809.3952270507813 1867.2877258300782 215.39925537109374 218.49890747070313 215.39925537109374 Z
M 1525.1100463867188 758.9055694580078
Q 1473.900393676758 758.9055694580078 1427.1907104492188 739.1057037353515 1382.0110168457031 720.0258331298829 1347.1812530517577 685.1960693359375 1312.3514892578128 650.3663055419921 1293.271618652344 605.1866119384766 1273.4717529296877 558.3869293212891 1273.4717529296877 507.1772766113281 1273.4717529296877 455.96762390136723 1293.271618652344 409.2579406738281 1312.3514892578128 364.0782470703125 1347.1812530517577 329.2484832763672 1382.0110168457031 294.4187194824219 1427.1907104492188 275.3388488769531 1473.900393676758 255.53898315429686 1525.1100463867188 255.53898315429686 1576.3196990966799 255.53898315429686 1623.0293823242187 275.3388488769531 1668.2090759277344 294.4187194824219 1703.0388397216798 329.2484832763672 1737.8686035156252 364.0782470703125 1756.948474121094 409.2579406738281 1776.7483398437503 455.96762390136723 1776.7483398437503 507.1772766113281 1776.7483398437503 558.3869293212891 1756.948474121094 605.1866119384766 1737.8686035156252 650.3663055419921 1703.0388397216798 685.1960693359375 1668.2090759277344 720.0258331298829 1623.0293823242187 739.1057037353515 1576.3196990966799 758.9055694580078 1525.1100463867188 758.9055694580078 Z
M 1096.802951049805 673.7661468505859
Q 1064.3131713867188 673.7661468505859 1034.7033721923829 660.7162353515624 1005.9935668945312 648.1163208007812 984.3937133789062 625.4364746093751 969.0938171386719 609.1465850830078 958.2938903808594 589.3467193603516
L 958.2938903808594 670.7961669921875 921.4841400146485 670.7961669921875 763.8952087402344 444.4477020263672 763.8952087402344 670.7961669921875 708.9955810546875 670.7961669921875 670.0258453369141 575.3968139648438 553.6566345214843 575.3968139648438
Q 547.4466766357422 590.6967102050781 533.3167724609375 624.4464813232422 520.8068572998046 654.5062774658203 514.686898803711 670.7961669921875
L 313.89826049804685 670.7961669921875 313.89826049804685 346.7983642578125 360.69794311523435 346.7983642578125 360.69794311523435 623.996484375 482.64711608886716 623.996484375 594.4263580322266 343.198388671875 628.8061248779296 343.198388671875 717.0955261230469 567.1168701171874 717.0955261230469 346.1683685302735 753.2752807617188 346.61836547851567 911.4942077636719 575.3068145751953 911.4942077636719 346.7983642578125 958.2938903808594 346.7983642578125 958.2938903808594 429.50780334472654
Q 968.9138183593749 410.0679351806641 984.3937133789062 393.41804809570317 1006.0835662841796 371.00820007324216 1034.6133728027344 358.5882843017578 1064.3131713867188 345.5383728027344 1096.7129516601562 345.5383728027344 1152.4225738525392 345.5383728027344 1193.2822967529296 377.93815307617194 1234.1420196533204 410.24793395996096 1248.00192565918 465.59755859375
L 1201.6522399902346 465.59755859375
Q 1188.9623260498047 429.86780090332036 1160.7025177001956 410.5179321289063 1133.4327026367187 391.88805847167976 1096.802951049805 391.88805847167976 1073.9431060791017 391.88805847167976 1052.883248901367 401.2479949951172 1032.6333862304687 410.24793395996096 1017.063491821289 426.5378234863282 1001.2235992431641 443.09771118164065 992.6736572265626 463.7075714111328 983.5837188720702 485.5774230957031 983.5837188720702 509.96725769042973 983.5837188720702 533.7270965576172 992.6736572265626 555.4169494628907 1001.3135986328124 576.0268096923828 1017.063491821289 592.4966979980469 1032.7233856201174 608.8765869140625 1052.883248901367 617.9665252685546 1074.03310546875 627.4164611816406 1096.802951049805 627.4164611816406 1133.9726989746096 627.4164611816406 1162.7725036621096 607.0765991210938 1192.0223052978517 586.3767395019531 1204.442221069336 550.1969848632813
L 1250.3419097900392 550.1969848632813
Q 1236.302005004883 605.9966064453125 1194.99228515625 639.6563781738281 1153.0525695800784 673.7661468505859 1096.802951049805 673.7661468505859 Z"/>

<path id="Symbol_1_0_Layer0_0_1_STROKES" stroke="#CC33CC" stroke-width="1" stroke-linejoin="miter" stroke-linecap="butt" stroke-miterlimit="10" fill="none" d="
M 451.9 364.6
Q 462.7 347.6 473.5 311.35
L 482.15 278.5
Q 436.45 253.9 381.35 247.7 350.85 244.3 327.25 246.9
L 327.35 242.2
Q 327.35 220.5 316.9 201.45
L 318.15 203.05 477 182
Q 472.9 162.3 455.5 128.65
L 438.85 99
Q 387.3 113.6 342.4 149.05 318.8 167.7 304.95 184.7 288.1 166.45 264.6 160.15
L 359.75 31.15
Q 342.75 20.35 306.4 9.65
L 273.55 1
Q 247.5 49.5 242.2 108.2 239.6 137.55 242.2 157.15 219 157.15 199.1 168.85
L 202 166.7 178.05 8.2
Q 158.35 12.6 125.1 30.7
L 95.8 47.9
Q 111.35 99.55 148.05 144.1 166.6 166.6 183.9 180.3 165.9 197.3 159.85 220.8
L 160.2 217.45 30.1 124.05
Q 19.55 141.25 9.2 177.6 4.05 195.85 1 210.6 48.35 235.3 105.25 240.25 134.85 242.85 157.15 239.95
L 157.05 242.2
Q 157.05 263 166.9 281.8
L 8.2 300.15
Q 11.9 319.95 28.8 353.9 37.3 370.8 44.95 383.8 96.4 370.2 141.7 335.8 166.25 317.1 180.1 300.45 195.4 316.8 216.75 323.5
L 216.1 323.4 120.6 452.2
Q 137.65 463 174 473.85 192.1 479.25 206.85 482.5 231.75 436.35 237.8 380.7 241.15 350.05 238.5 327.25
L 242.2 327.35
Q 263.45 327.35 282 317.55
L 303.75 475.15
Q 323.5 470.9 357.05 453.25 373.8 444.55 386.55 436.5 372.25 386.95 338.4 343.35 319.8 319.45 301 303.75 316.45 289.1 323.1 268.85
L 323.05 269.4 451.9 364.6 Z"/>
</defs>

<g transform="matrix( 1.79998779296875, 0, 0, 1.79998779296875, 57.4,105.6) ">
<use xlink:href="#Layer1_0_1_STROKES" transform="matrix( 0.5555572509765625, 0, 0, 0.5555572509765625, -31.85,-58.65) "/>
</g>

<g transform="matrix( 1.79998779296875, 0, 0, 1.79998779296875, 57.4,105.6) ">
<use xlink:href="#Layer1_1_1_STROKES" transform="matrix( 0.5555572509765625, 0, 0, 0.5555572509765625, -31.85,-58.65) "/>
</g>

<g transform="matrix( 0.71331787109375, -0.700836181640625, 0.700836181640625, 0.71331787109375, 1183.15,504.15) ">
<g transform="matrix( 1, 0, 0, 1, 0,0) ">
<use xlink:href="#Symbol_1_0_Layer0_0_1_STROKES"/>
</g>
</g>
</svg>
