<?xml version="1.0" encoding="UTF-8"?>
<svg id="Layer_1" data-name="Layer 1" xmlns="http://www.w3.org/2000/svg" viewBox="0 0 1449 710.59">
  <defs>
    <style>
      .cls-1 {
        fill: none;
        stroke: #bb1e4e;
        stroke-miterlimit: 10;
      }
    </style>
  </defs>
  <g id="Fixed">
    <polygon class="cls-1" points="724.5 322.88 724.5 439.88 364.5 313.8 364.5 196.8 431.55 220.29 431.56 220.29 464.5 231.82 724.5 322.88"/>
    <line class="cls-1" x1="364.5" y1="196.8" x2="364.5" y2="126.77"/>
    <polygon class="cls-1" points="724.5 .7 724.5 117.7 464.5 208.75 464.5 231.82 431.56 220.29 431.55 220.29 364.5 196.8 464.5 161.79 364.5 126.77 464.5 91.75 724.5 .7"/>
    <polygon class="cls-1" points="724.5 322.88 724.5 439.88 1084.5 313.8 1084.5 196.8 1017.45 220.29 1017.44 220.29 984.5 231.82 724.5 322.88"/>
    <path class="cls-1" d="m1084.5,196.8v-70.03"/>
    <path class="cls-1" d="m724.5.7v117l260,91.05v23.07l32.94-11.53h0l67.05-23.49c-33.33-11.67-66.67-23.34-100-35.01h0c33.33-11.67,66.67-23.35,100-35.02l-100-35.02L724.5.7Z"/>
    <polygon class="cls-1" points="724.5 457.88 724.5 529.88 607.5 488.9 607.5 416.9 724.5 457.88"/>
    <polygon class="cls-1" points="841.5 416.9 841.5 488.9 724.5 529.88 724.5 457.88 841.5 416.9"/>
    <polygon class="cls-1" points="724.5 547.88 724.5 619.88 607.5 578.9 607.5 506.9 724.5 547.88"/>
    <polygon class="cls-1" points="841.5 506.9 841.5 578.9 724.5 619.88 724.5 547.88 841.5 506.9"/>
    <polygon class="cls-1" points="724.5 637.88 724.5 709.88 607.5 668.9 607.5 596.9 724.5 637.88"/>
    <polygon class="cls-1" points="841.5 596.9 841.5 668.9 724.5 709.88 724.5 637.88 841.5 596.9"/>
    <g>
      <polygon class="cls-1" points="173.5 416.9 173.5 459.9 111 459.9 111 668.9 63 668.9 63 459.9 .5 459.9 .5 416.9 173.5 416.9"/>
      <polygon class="cls-1" points="256.5 459.9 256.5 521.4 381.5 521.4 381.5 564.4 256.5 564.4 256.5 625.9 381.5 625.9 381.5 668.9 208.5 668.9 208.5 416.9 381.5 416.9 381.5 459.9 256.5 459.9"/>
      <polygon class="cls-1" points="464.5 459.9 464.5 521.4 589.5 521.4 589.5 668.9 416.5 668.9 416.5 625.9 541.5 625.9 541.5 564.4 416.5 564.4 416.5 416.9 589.5 416.9 589.5 459.9 464.5 459.9"/>
    </g>
    <g>
      <path class="cls-1" d="m1067.5,416.9v252h48v-104.5h77v104.5h48v-252h-173Zm125,104.5h-77v-61.5h77v61.5Z"/>
      <polygon class="cls-1" points="1032.5 625.9 1032.5 668.9 859.5 668.9 859.5 416.9 907.5 416.9 907.5 625.9 1032.5 625.9"/>
      <polygon class="cls-1" points="1448.5 416.9 1448.5 668.9 1400.5 668.9 1323.5 516.9 1323.5 668.9 1275.5 668.9 1275.5 416.9 1323.5 416.9 1400.5 568.9 1400.5 416.9 1448.5 416.9"/>
    </g>
    <path class="cls-1" d="m984.5,208.81v-47.87"/>
    <path class="cls-1" d="m464.5,208.81v-47.87"/>
  </g>
</svg>